<?xml version="1.0" encoding="utf-8"?>
<!-- Generator: Adobe Illustrator 24.1.3, SVG Export Plug-In . SVG Version: 6.00 Build 0)  -->
<svg version="1.1" id="レイヤー_1" xmlns="http://www.w3.org/2000/svg" xmlns:xlink="http://www.w3.org/1999/xlink" x="0px"
	 y="0px" viewBox="0 0 30 30" style="enable-background:new 0 0 30 30;" xml:space="preserve">
<style type="text/css">
	.st0{fill-rule:evenodd;clip-rule:evenodd;fill:#37352F;}
	.st1{fill:#37352F;}
	.st2{fill-rule:evenodd;clip-rule:evenodd;}
	.st3{fill:#37352F;fill-opacity:0.3;}
</style>
<g>
	<path class="st1" d="M18.66,13.41l1.24-2.05c0.03-0.06,0.04-0.12,0.02-0.18c-0.02-0.06-0.06-0.11-0.12-0.15
		c-0.03-0.02-0.06-0.03-0.09-0.03c-0.03,0-0.07,0-0.1,0.01c-0.03,0.01-0.06,0.02-0.09,0.04s-0.05,0.04-0.07,0.07l-1.26,2.08
		c-0.96-0.42-2.04-0.65-3.21-0.65s-2.25,0.23-3.21,0.65l-1.26-2.08c-0.03-0.05-0.09-0.1-0.15-0.11c-0.06-0.02-0.13-0.01-0.19,0.02
		c-0.06,0.03-0.1,0.08-0.12,0.15c-0.02,0.06-0.01,0.13,0.03,0.18l1.24,2.05c-2.15,1.1-3.6,3.17-3.84,5.59h15
		C22.26,16.58,20.81,14.52,18.66,13.41z M11.56,17c-0.12,0-0.25-0.04-0.35-0.1c-0.1-0.07-0.18-0.16-0.23-0.27
		c-0.05-0.11-0.06-0.23-0.04-0.35c0.02-0.12,0.08-0.22,0.17-0.31c0.09-0.08,0.2-0.14,0.32-0.16c0.12-0.02,0.25-0.01,0.36,0.03
		c0.11,0.05,0.21,0.12,0.28,0.22c0.07,0.1,0.11,0.21,0.11,0.33c0,0.16-0.07,0.31-0.18,0.42C11.88,16.93,11.72,17,11.56,17z
		 M18.44,17c-0.12,0-0.25-0.04-0.35-0.1c-0.1-0.07-0.18-0.16-0.23-0.27c-0.05-0.11-0.06-0.23-0.04-0.35
		c0.02-0.12,0.08-0.22,0.17-0.31s0.2-0.14,0.32-0.16c0.12-0.02,0.25-0.01,0.36,0.03c0.11,0.05,0.21,0.12,0.28,0.22
		c0.07,0.1,0.11,0.21,0.11,0.33c0,0.08-0.02,0.16-0.05,0.23c-0.03,0.07-0.08,0.14-0.14,0.19c-0.06,0.06-0.13,0.1-0.2,0.13
		C18.61,16.98,18.52,17,18.44,17L18.44,17z"/>
	<path class="st0" d="M24.41,8.73c0-0.58-0.47-1.05-1.04-1.05H6.64c-0.58,0-1.04,0.47-1.04,1.05v12.55c0,0.58,0.47,1.05,1.04,1.05
		h16.73c0.58,0,1.04-0.47,1.04-1.05V8.73z M23.36,5.59c1.73,0,3.14,1.4,3.14,3.14v12.55c0,1.73-1.4,3.14-3.14,3.14H6.64
		c-1.73,0-3.14-1.4-3.14-3.14V8.73C3.5,7,4.9,5.59,6.64,5.59H23.36z"/>
</g>
</svg>
