<?xml version="1.0" encoding="utf-8"?>
<!-- Generator: Adobe Illustrator 24.2.0, SVG Export Plug-In . SVG Version: 6.00 Build 0)  -->
<svg version="1.1" id="レイヤー_1" xmlns="http://www.w3.org/2000/svg" xmlns:xlink="http://www.w3.org/1999/xlink" x="0px"
	 y="0px" viewBox="0 0 30 30" style="enable-background:new 0 0 30 30;" xml:space="preserve">
<style type="text/css">
	.st0{fill-rule:evenodd;clip-rule:evenodd;fill:#37352F;}
</style>
<g>
	<path class="st0" d="M17.5,6c0.4,0,0.7,0.1,1,0.4l7.6,7.6c0.5,0.5,0.5,1.4,0,2l-7.6,7.6c-0.3,0.3-0.6,0.4-1,0.4
		c-0.4,0-0.7-0.1-1-0.4c-0.5-0.5-0.5-1.4,0-2l6.7-6.7l-6.7-6.7c-0.5-0.5-0.5-1.4,0-2C16.8,6.1,17.2,6,17.5,6z"/>
	<path class="st0" d="M6.8,6c0.4,0,0.7,0.1,1,0.4l7.6,7.6c0.5,0.5,0.5,1.4,0,2l-7.6,7.6c-0.3,0.3-0.6,0.4-1,0.4s-0.7-0.1-1-0.4
		c-0.3-0.3-0.4-0.6-0.4-1c0-0.4,0.1-0.7,0.4-1l6.7-6.7L5.9,8.3c-0.3-0.3-0.4-0.6-0.4-1s0.1-0.7,0.4-1S6.5,6,6.8,6z"/>
</g>
</svg>
