<?xml version="1.0" encoding="utf-8"?>
<!-- Generator: Adobe Illustrator 24.2.0, SVG Export Plug-In . SVG Version: 6.00 Build 0)  -->
<svg version="1.1" id="レイヤー_1" xmlns="http://www.w3.org/2000/svg" xmlns:xlink="http://www.w3.org/1999/xlink" x="0px"
	 y="0px" viewBox="0 0 30 30" style="enable-background:new 0 0 30 30;" xml:space="preserve">
<style type="text/css">
	.st0{fill-rule:evenodd;clip-rule:evenodd;fill:#37352F;}
</style>
<g>
	<path class="st0" d="M12.5,24c-0.4,0-0.7-0.1-1-0.4L3.9,16c-0.5-0.5-0.5-1.4,0-2l7.6-7.6c0.3-0.3,0.6-0.4,1-0.4
		c0.4,0,0.7,0.1,1,0.4c0.5,0.5,0.5,1.4,0,2L6.8,15l6.7,6.7c0.5,0.5,0.5,1.4,0,2C13.2,23.9,12.8,24,12.5,24z"/>
	<path class="st0" d="M23.2,24c-0.4,0-0.7-0.1-1-0.4L14.5,16c-0.5-0.5-0.5-1.4,0-2l7.6-7.6c0.3-0.3,0.6-0.4,1-0.4s0.7,0.1,1,0.4
		c0.3,0.3,0.4,0.6,0.4,1c0,0.4-0.1,0.7-0.4,1L17.5,15l6.7,6.7c0.3,0.3,0.4,0.6,0.4,1s-0.1,0.7-0.4,1S23.5,24,23.2,24z"/>
</g>
</svg>
