<?xml version="1.0" encoding="utf-8"?>
<!-- Generator: Adobe Illustrator 24.1.3, SVG Export Plug-In . SVG Version: 6.00 Build 0)  -->
<svg version="1.1" id="レイヤー_1" xmlns="http://www.w3.org/2000/svg" xmlns:xlink="http://www.w3.org/1999/xlink" x="0px"
	 y="0px" viewBox="0 0 30 30" style="enable-background:new 0 0 30 30;" xml:space="preserve">
<style type="text/css">
	.st0{fill-rule:evenodd;clip-rule:evenodd;fill:#37352F;}
	.st1{fill:#37352F;}
	.st2{fill-rule:evenodd;clip-rule:evenodd;}
	.st3{fill:#37352F;fill-opacity:0.3;}
</style>
<g>
	<path class="st2" d="M8.49,5.18C8.77,5.06,9.07,5,9.38,5c0.3,0,0.61,0.06,0.89,0.18c0.28,0.12,0.54,0.29,0.75,0.5c0,0,0,0,0,0
		l10.32,10.23c0,0,0,0,0,0c0.14,0.14,0.24,0.32,0.28,0.51c0.04,0.2,0.02,0.4-0.05,0.58c-0.08,0.18-0.2,0.34-0.37,0.46
		c-0.17,0.11-0.36,0.17-0.56,0.17l0-0.71v0.71h0h-0.01c-0.21,0-0.41,0.01-0.58,0.05c-0.15,0.03-0.2,0.07-0.2,0.06c0,0,0,0,0,0
		c0,0,0,0,0,0c0,0,0,0,0,0c-0.35,0.35-3.2,3.1-5.01,4.86c-0.24,0.23-0.46,0.44-0.65,0.63l0,0c-0.37,0.35-0.85,0.55-1.36,0.55
		c-0.51,0-1-0.19-1.36-0.55l0,0L5.6,17.63l0,0c-0.19-0.18-0.34-0.4-0.44-0.64C5.06,16.75,5,16.49,5,16.23
		c0-0.26,0.05-0.52,0.15-0.76c0.1-0.24,0.25-0.46,0.43-0.64l0,0l0.5,0.51l-0.5-0.51l3.78-3.77l1.01,1.01l-3.78,3.77l0,0
		c-0.05,0.05-0.09,0.11-0.12,0.18c-0.03,0.07-0.04,0.14-0.04,0.21c0,0.07,0.02,0.14,0.04,0.21c0.03,0.07,0.07,0.12,0.12,0.17l0,0
		L6.1,17.11l0.5-0.51l5.86,5.62l-0.49,0.52l0.49-0.51l0,0c0.1,0.1,0.23,0.15,0.37,0.15c0.14,0,0.27-0.05,0.37-0.15h0l0.5,0.51
		l-0.5-0.51c0.19-0.19,0.41-0.4,0.65-0.63c1.82-1.76,4.67-4.52,5-4.85c0.26-0.26,0.59-0.38,0.86-0.44l0.64,0.63c0,0,0,0,0,0
		l0.5-0.51l-0.5,0.51c-0.06-0.06-0.1-0.13-0.11-0.21c-0.02-0.08-0.01-0.17,0.02-0.25c0.03-0.08,0.09-0.14,0.16-0.19
		c0.07-0.04,0.14-0.07,0.22-0.07c0,0,0.01,0,0.01,0 M20.64,16.21h-0.01c-0.26,0-0.57,0.02-0.86,0.08c-0.02,0-0.04,0.01-0.06,0.01
		l-6.82-6.76l-1.26,1.26l0.19-1.72l0.06-0.54l-1.86-1.85l0,0C9.93,6.61,9.83,6.54,9.72,6.5C9.61,6.45,9.5,6.43,9.38,6.43
		c-0.12,0-0.23,0.02-0.34,0.07C8.93,6.54,8.83,6.61,8.75,6.69l0,0L8.51,6.92l0,0C8.43,7.01,8.36,7.1,8.32,7.21
		C8.27,7.32,8.25,7.44,8.25,7.55c0,0.12,0.02,0.23,0.07,0.34c0.05,0.11,0.11,0.21,0.2,0.29v0l1.85,1.86l-1.01,1.01L7.5,9.2l0.5-0.51
		L7.5,9.2h0C7.29,8.98,7.12,8.73,7,8.44C6.88,8.16,6.82,7.86,6.82,7.55c0-0.31,0.06-0.61,0.18-0.89C7.12,6.38,7.29,6.13,7.5,5.91
		l0,0l0.51,0.5L7.5,5.91l0.23-0.23l0.51,0.5l-0.5-0.51l0,0c0.22-0.22,0.47-0.39,0.75-0.5 M10.63,11.05l-0.26-1.01l1.51-1.5
		l-0.66,1.68L10.63,11.05z M12.89,9.54l-2.52,2.51l0,0L12.89,9.54L12.89,9.54z M21.76,17.95c0.12-0.06,0.25-0.09,0.38-0.09
		c0.13,0,0.26,0.03,0.38,0.09c0.12,0.06,0.22,0.13,0.3,0.23c0.04,0.05,0.1,0.12,0.17,0.2c0.26,0.29,0.68,0.76,1.04,1.27
		C24.5,20.29,25,21.18,25,22.1c0,1.58-1.27,2.89-2.86,2.89c-1.59,0-2.86-1.31-2.86-2.89c0-0.93,0.5-1.81,0.96-2.46
		c0.36-0.5,0.77-0.97,1.03-1.26c0.08-0.08,0.14-0.16,0.18-0.21C21.54,18.08,21.65,18,21.76,17.95z M22.15,19.56
		c-0.23,0.26-0.48,0.56-0.74,0.91c-0.43,0.6-0.7,1.17-0.7,1.63c0,0.82,0.65,1.47,1.43,1.47c0.77,0,1.43-0.65,1.43-1.47
		c0-0.46-0.27-1.03-0.69-1.63C22.63,20.12,22.37,19.82,22.15,19.56z"/>
	<path d="M9.17,11.24l2.71-2.71l0.67,0.32l0.32,0.7l-2.51,2.51l-0.23,0.06L9.17,11.24z"/>
	<path d="M20.16,15.93l-0.44,0.38v0.29l0.09,0.5c0.24,0.01,0.76,0.02,0.87,0c0.12-0.02,0.34-0.48,0.44-0.7l-0.44-0.29L20.16,15.93z"
		/>
</g>
</svg>
