<?xml version="1.0" encoding="utf-8"?>
<!-- Generator: Adobe Illustrator 24.2.0, SVG Export Plug-In . SVG Version: 6.00 Build 0)  -->
<svg version="1.1" id="レイヤー_1" xmlns="http://www.w3.org/2000/svg" xmlns:xlink="http://www.w3.org/1999/xlink" x="0px"
	 y="0px" viewBox="0 0 30 30" style="enable-background:new 0 0 30 30;" xml:space="preserve">
<style type="text/css">
	.st0{fill-rule:evenodd;clip-rule:evenodd;fill:#37352F;}
</style>
<g>
	<path class="st0" d="M7.7,10.3c-0.3,0-0.5,0.1-0.7,0.3c-0.2,0.2-0.3,0.4-0.3,0.7v10.7c0,0.3,0.1,0.5,0.3,0.7
		C7.2,22.9,7.4,23,7.7,23h10.7c0.3,0,0.5-0.1,0.7-0.3c0.2-0.2,0.3-0.4,0.3-0.7v-5.9c0-0.5,0.4-1,1-1c0.5,0,1,0.4,1,1v5.9
		c0,0.8-0.3,1.5-0.9,2.1C20,24.7,19.2,25,18.4,25H7.7c-0.8,0-1.5-0.3-2.1-0.9c-0.5-0.5-0.9-1.3-0.9-2.1V11.3c0-0.8,0.3-1.5,0.9-2.1
		c0.5-0.5,1.3-0.9,2.1-0.9h5.9c0.5,0,1,0.4,1,1c0,0.5-0.4,1-1,1H7.7z"/>
	<path class="st0" d="M17.4,6c0-0.5,0.4-1,1-1h5.9c0.5,0,1,0.4,1,1v5.9c0,0.5-0.4,1-1,1s-1-0.4-1-1V7h-4.9C17.8,7,17.4,6.5,17.4,6z"
		/>
	<path class="st0" d="M24.9,5.3c0.4,0.4,0.4,1,0,1.4L14.2,17.4c-0.4,0.4-1,0.4-1.4,0c-0.4-0.4-0.4-1,0-1.4L23.6,5.3
		C23.9,4.9,24.6,4.9,24.9,5.3z"/>
</g>
</svg>
