<?xml version="1.0" encoding="utf-8"?>
<!-- Generator: Adobe Illustrator 24.1.3, SVG Export Plug-In . SVG Version: 6.00 Build 0)  -->
<svg version="1.1" id="レイヤー_1" xmlns="http://www.w3.org/2000/svg" xmlns:xlink="http://www.w3.org/1999/xlink" x="0px"
	 y="0px" viewBox="0 0 30 30" style="enable-background:new 0 0 30 30;" xml:space="preserve">
<style type="text/css">
	.st0{fill-rule:evenodd;clip-rule:evenodd;fill:#37352F;}
	.st1{fill:#37352F;}
	.st2{fill-rule:evenodd;clip-rule:evenodd;}
	.st3{fill:#37352F;fill-opacity:0.3;}
</style>
<g>
	<path class="st0" d="M15,6c-4.97,0-9,4.03-9,9s4.03,9,9,9s9-4.03,9-9S19.97,6,15,6z M4,15C4,8.92,8.92,4,15,4s11,4.92,11,11
		c0,6.07-4.92,11-11,11S4,21.07,4,15z"/>
	<path class="st0" d="M18.71,11.29c0.39,0.39,0.39,1.02,0,1.41l-6,6c-0.39,0.39-1.02,0.39-1.41,0c-0.39-0.39-0.39-1.02,0-1.41l6-6
		C17.68,10.9,18.32,10.9,18.71,11.29z"/>
	<path class="st0" d="M11.29,11.29c0.39-0.39,1.02-0.39,1.41,0l6,6c0.39,0.39,0.39,1.02,0,1.41c-0.39,0.39-1.02,0.39-1.41,0l-6-6
		C10.9,12.32,10.9,11.68,11.29,11.29z"/>
</g>
</svg>
