<?xml version="1.0" encoding="utf-8"?>
<!-- Generator: Adobe Illustrator 24.1.3, SVG Export Plug-In . SVG Version: 6.00 Build 0)  -->
<svg version="1.1" id="レイヤー_1" xmlns="http://www.w3.org/2000/svg" xmlns:xlink="http://www.w3.org/1999/xlink" x="0px"
	 y="0px" viewBox="0 0 30 30" style="enable-background:new 0 0 30 30;" xml:space="preserve">
<style type="text/css">
	.st0{fill-rule:evenodd;clip-rule:evenodd;fill:#37352F;}
	.st1{fill:#37352F;}
	.st2{fill-rule:evenodd;clip-rule:evenodd;}
	.st3{fill:#37352F;fill-opacity:0.3;}
</style>
<g>
	<path class="st2" d="M20.8,9.18c-2.22-2.21-5.89-2.78-8.67-1.38l0,0c-1.25,0.62-2.29,1.58-3.03,2.76
		c-0.73,1.18-1.12,2.54-1.12,3.93v0c0,1.16,0.27,2.3,0.79,3.33c0.12,0.24,0.14,0.52,0.06,0.77l-1.27,3.79l3.8-1.26
		c0.25-0.08,0.53-0.06,0.77,0.06c1.04,0.52,2.18,0.79,3.35,0.79h0c1.39,0,2.76-0.39,3.94-1.12c1.18-0.73,2.14-1.78,2.76-3.02l0,0
		C23.67,14.9,23.14,11.51,20.8,9.18z M11.23,6.01c3.54-1.78,8.15-1.07,10.98,1.75c2.95,2.95,3.62,7.27,1.76,10.96
		c-0.79,1.57-2,2.9-3.5,3.82c-1.5,0.92-3.23,1.41-4.99,1.42h0h0h0c-1.34,0-2.65-0.28-3.87-0.82c-0.4-0.18-0.4-0.19,0,0L6.3,24.91
		c-0.36,0.12-0.76,0.03-1.02-0.24C5.01,24.4,4.91,24,5.03,23.64l1.77-5.3c0.19,0.4,0.18,0.41,0,0c-0.55-1.21-0.83-2.53-0.82-3.86
		c0-1.76,0.49-3.48,1.42-4.98C8.33,8.01,9.66,6.8,11.23,6.01z M11.23,6.01L11.23,6.01L11.23,6.01L11.23,6.01z"/>
</g>
</svg>
