<?xml version="1.0" encoding="utf-8"?>
<!-- Generator: Adobe Illustrator 24.1.3, SVG Export Plug-In . SVG Version: 6.00 Build 0)  -->
<svg version="1.1" id="レイヤー_1" xmlns="http://www.w3.org/2000/svg" xmlns:xlink="http://www.w3.org/1999/xlink" x="0px"
	 y="0px" viewBox="0 0 30 30" style="enable-background:new 0 0 30 30;" xml:space="preserve">
<style type="text/css">
	.st0{fill-rule:evenodd;clip-rule:evenodd;fill:#37352F;}
	.st1{fill:#37352F;}
</style>
<path class="st0" d="M13.7,6.3C14.1,6,14.5,5.9,15,5.9c0.5,0,0.9,0.1,1.3,0.3c0.4,0.2,0.7,0.5,1,0.9l0,0l7.4,12.4l0,0
	c0.2,0.4,0.3,0.8,0.4,1.3c0,0.5-0.1,0.9-0.3,1.3c-0.2,0.4-0.6,0.7-0.9,1c-0.4,0.2-0.8,0.4-1.3,0.4l0,0l-14.8,0
	c-0.5,0-0.9-0.1-1.3-0.4c-0.4-0.2-0.7-0.6-0.9-1C5.1,21.8,5,21.3,5,20.9c0-0.5,0.1-0.9,0.4-1.3l0,0l7.4-12.4l0.7,0.4l-0.7-0.5
	C13,6.8,13.3,6.5,13.7,6.3z M14.3,8.1L6.9,20.4c-0.1,0.1-0.1,0.3-0.1,0.4c0,0.2,0,0.3,0.1,0.4c0.1,0.1,0.2,0.2,0.3,0.3
	c0.1,0.1,0.3,0.1,0.4,0.1h14.8c0.2,0,0.3,0,0.4-0.1c0.1-0.1,0.2-0.2,0.3-0.3c0.1-0.1,0.1-0.3,0.1-0.4c0-0.2,0-0.3-0.1-0.4L15.7,8.1
	c0,0,0,0,0,0c-0.1-0.1-0.2-0.2-0.3-0.3c-0.1-0.1-0.3-0.1-0.4-0.1c-0.2,0-0.3,0-0.4,0.1C14.4,7.9,14.3,8,14.3,8.1z"/>
<path class="st0" d="M15,11.3c0.5,0,0.9,0.4,0.9,0.9v3.5c0,0.5-0.4,0.9-0.9,0.9s-0.9-0.4-0.9-0.9v-3.5C14.1,11.6,14.5,11.3,15,11.3z
	"/>
<path class="st0" d="M14.1,19.1c0-0.5,0.4-0.9,0.9-0.9h0c0.5,0,0.9,0.4,0.9,0.9c0,0.5-0.4,0.9-0.9,0.9h0
	C14.5,20,14.1,19.6,14.1,19.1z"/>
</svg>
