<?xml version="1.0" encoding="utf-8"?>
<!-- Generator: Adobe Illustrator 24.1.3, SVG Export Plug-In . SVG Version: 6.00 Build 0)  -->
<svg version="1.1" id="レイヤー_1" xmlns="http://www.w3.org/2000/svg" xmlns:xlink="http://www.w3.org/1999/xlink" x="0px"
	 y="0px" viewBox="0 0 30 30" style="enable-background:new 0 0 30 30;" xml:space="preserve">
<style type="text/css">
	.st0{fill-rule:evenodd;clip-rule:evenodd;fill:#37352F;}
	.st1{fill:#37352F;}
	.st2{fill-rule:evenodd;clip-rule:evenodd;}
	.st3{fill:#37352F;fill-opacity:0.3;}
</style>
<g>
	<path class="st0" d="M15,6c-4.97,0-9,4.03-9,9c0,4.97,4.03,9,9,9s9-4.03,9-9C24,10.03,19.97,6,15,6z M4,15C4,8.92,8.93,4,15,4
		s11,4.92,11,11c0,6.08-4.93,11-11,11S4,21.08,4,15z"/>
	<path class="st0" d="M15.26,11.02c-0.46-0.08-0.94,0.01-1.35,0.25c-0.41,0.24-0.72,0.62-0.87,1.06c-0.18,0.52-0.75,0.79-1.28,0.61
		c-0.52-0.18-0.79-0.75-0.61-1.28c0.31-0.89,0.93-1.64,1.75-2.12c0.81-0.48,1.77-0.65,2.7-0.49s1.78,0.64,2.38,1.37
		c0.61,0.72,0.94,1.64,0.94,2.58c0,1.53-1.13,2.54-1.94,3.08c-0.44,0.29-0.86,0.5-1.18,0.64c-0.16,0.07-0.29,0.12-0.39,0.16
		c-0.05,0.02-0.09,0.03-0.12,0.04l-0.04,0.01l-0.01,0l0,0l0,0c0,0,0,0-0.32-0.95l0.32,0.95c-0.52,0.17-1.09-0.11-1.26-0.63
		c-0.17-0.52,0.11-1.09,0.63-1.26l0,0c0,0,0,0,0,0l0.02-0.01c0.01-0.01,0.04-0.01,0.07-0.03c0.07-0.03,0.17-0.07,0.29-0.12
		c0.25-0.11,0.57-0.27,0.88-0.48c0.69-0.46,1.05-0.95,1.05-1.42v0c0-0.47-0.17-0.93-0.47-1.29C16.15,11.35,15.72,11.1,15.26,11.02z"
		/>
	<path class="st0" d="M14,20c0-0.55,0.45-1,1-1h0.01c0.55,0,1,0.45,1,1s-0.45,1-1,1H15C14.45,21,14,20.55,14,20z"/>
</g>
</svg>
