<?xml version="1.0" encoding="utf-8"?>
<!-- Generator: Adobe Illustrator 24.1.3, SVG Export Plug-In . SVG Version: 6.00 Build 0)  -->
<svg version="1.1" id="レイヤー_1" xmlns="http://www.w3.org/2000/svg" xmlns:xlink="http://www.w3.org/1999/xlink" x="0px"
	 y="0px" viewBox="0 0 30 30" style="enable-background:new 0 0 30 30;" xml:space="preserve">
<style type="text/css">
	.st0{fill-rule:evenodd;clip-rule:evenodd;fill:#37352F;}
	.st1{fill:#37352F;}
	.st2{fill-rule:evenodd;clip-rule:evenodd;}
	.st3{fill:#37352F;fill-opacity:0.3;}
</style>
<g>
	<path d="M25.31,13.83c-0.45-0.45-0.97-0.68-1.59-0.68c-0.61,0-1.13,0.22-1.58,0.66c-0.45,0.44-0.66,0.98-0.66,1.59
		s0.21,1.13,0.65,1.58c0.44,0.45,0.98,0.66,1.59,0.66c0.61,0,1.14-0.22,1.59-0.66c0.45-0.45,0.66-0.96,0.66-1.58
		S25.75,14.28,25.31,13.83z"/>
	<path d="M21.01,19.72c-0.58,0-1.06,0.19-1.46,0.59c-0.4,0.4-0.59,0.86-0.59,1.43c0,0.57,0.19,1.05,0.59,1.46
		c0.39,0.4,0.88,0.59,1.46,0.59c0.57,0,1.03-0.19,1.43-0.59c0.41-0.41,0.61-0.89,0.61-1.46c0-0.57-0.21-1.03-0.61-1.43
		C22.04,19.91,21.58,19.72,21.01,19.72z"/>
	<path d="M21.31,11.67c0.66,0,1.24-0.24,1.72-0.72c0.48-0.48,0.72-1.06,0.72-1.73c0-0.69-0.24-1.26-0.72-1.75
		C22.56,7,21.99,6.76,21.31,6.76c-0.69,0-1.26,0.24-1.73,0.71c-0.48,0.48-0.72,1.06-0.72,1.75c0,0.67,0.24,1.25,0.72,1.73
		C20.06,11.42,20.64,11.67,21.31,11.67z"/>
	<path d="M14.66,22.33c-0.51,0-0.94,0.18-1.3,0.54c-0.35,0.36-0.53,0.79-0.53,1.31c0,0.51,0.18,0.94,0.53,1.29
		c0.36,0.35,0.79,0.53,1.3,0.53c0.52,0,0.95-0.18,1.3-0.53c0.36-0.35,0.54-0.78,0.54-1.29c0-0.52-0.18-0.96-0.54-1.32
		C15.61,22.51,15.17,22.33,14.66,22.33z"/>
	<path d="M14.66,4c-0.73,0-1.36,0.25-1.88,0.77c-0.52,0.52-0.77,1.13-0.77,1.87c0,0.73,0.25,1.37,0.77,1.89
		c0.52,0.52,1.14,0.77,1.88,0.77c0.73,0,1.36-0.25,1.88-0.77c0.52-0.52,0.78-1.16,0.78-1.89c0-0.73-0.27-1.35-0.78-1.87
		C16.02,4.25,15.39,4,14.66,4z"/>
	<path d="M8.31,10.43c0.33,0,0.63-0.11,0.87-0.35c0.48-0.48,0.48-1.26,0-1.74C8.94,8.09,8.64,7.98,8.31,7.98
		C8,7.98,7.71,8.1,7.46,8.33c-0.5,0.49-0.5,1.26,0,1.74C7.71,10.32,8,10.43,8.31,10.43z"/>
	<path d="M8.31,19.97c-0.45,0-0.82,0.17-1.15,0.5c-0.32,0.31-0.48,0.69-0.48,1.13c0,0.45,0.16,0.83,0.48,1.16
		c0.32,0.33,0.71,0.49,1.15,0.49s0.83-0.17,1.16-0.49c0.33-0.32,0.48-0.71,0.48-1.16c0-0.44-0.16-0.82-0.48-1.13
		C9.14,20.14,8.76,19.97,8.31,19.97z"/>
	<path d="M6.46,14.4c-0.28-0.28-0.6-0.42-1-0.42c-0.4,0-0.75,0.14-1.02,0.42c-0.28,0.28-0.41,0.61-0.41,1.01
		c0,0.4,0.13,0.74,0.41,1.02c0.28,0.28,0.63,0.41,1.02,0.41c0.4,0,0.72-0.13,1-0.41c0.28-0.28,0.42-0.63,0.42-1.02
		C6.88,15.01,6.74,14.68,6.46,14.4z"/>
</g>
</svg>
