<?xml version="1.0" encoding="utf-8"?>
<!-- Generator: Adobe Illustrator 24.1.3, SVG Export Plug-In . SVG Version: 6.00 Build 0)  -->
<svg version="1.1" id="レイヤー_1" xmlns="http://www.w3.org/2000/svg" xmlns:xlink="http://www.w3.org/1999/xlink" x="0px"
	 y="0px" viewBox="0 0 30 30" style="enable-background:new 0 0 30 30;" xml:space="preserve">
<style type="text/css">
	.st0{fill-rule:evenodd;clip-rule:evenodd;fill:#37352F;}
	.st1{fill:#37352F;}
	.st2{fill-rule:evenodd;clip-rule:evenodd;}
	.st3{fill:#37352F;fill-opacity:0.3;}
</style>
<g>
	<path class="st0" d="M5.14,15c0.11,0.19,0.25,0.43,0.43,0.71c0.46,0.71,1.14,1.66,2.03,2.61C9.4,20.23,11.9,22,15,22
		c3.1,0,5.6-1.77,7.4-3.68c0.89-0.95,1.57-1.89,2.03-2.61c0.18-0.28,0.32-0.52,0.43-0.71c-0.11-0.19-0.25-0.43-0.43-0.71
		c-0.46-0.71-1.14-1.66-2.03-2.61C20.6,9.77,18.1,8,15,8c-3.1,0-5.6,1.77-7.4,3.68c-0.89,0.95-1.57,1.89-2.03,2.61
		C5.39,14.57,5.25,14.81,5.14,15z M26,15c0.89-0.45,0.89-0.45,0.89-0.45l0,0l0-0.01l-0.01-0.02c-0.01-0.02-0.02-0.04-0.04-0.08
		c-0.03-0.07-0.09-0.16-0.15-0.28c-0.13-0.23-0.33-0.56-0.58-0.96c-0.51-0.79-1.26-1.84-2.25-2.89C21.9,8.23,18.9,6,15,6
		s-6.9,2.23-8.85,4.32c-0.99,1.05-1.74,2.11-2.25,2.89c-0.25,0.39-0.45,0.72-0.58,0.96c-0.07,0.12-0.12,0.21-0.15,0.28
		c-0.02,0.03-0.03,0.06-0.04,0.08l-0.01,0.02l0,0.01l0,0c0,0,0,0,0.89,0.45l-0.89-0.45c-0.14,0.28-0.14,0.61,0,0.89L4,15
		c-0.89,0.45-0.89,0.45-0.89,0.45l0,0l0,0.01l0.01,0.02c0.01,0.02,0.02,0.04,0.04,0.08c0.03,0.07,0.09,0.16,0.15,0.28
		c0.13,0.23,0.33,0.56,0.58,0.96c0.51,0.79,1.26,1.84,2.25,2.89C8.1,21.77,11.1,24,15,24s6.9-2.23,8.85-4.32
		c0.99-1.05,1.74-2.11,2.25-2.89c0.25-0.39,0.45-0.72,0.58-0.96c0.07-0.12,0.12-0.21,0.15-0.28c0.02-0.03,0.03-0.06,0.04-0.08
		l0.01-0.02l0-0.01l0,0C26.89,15.45,26.89,15.45,26,15z M26,15l0.89,0.45c0.14-0.28,0.14-0.61,0-0.9L26,15z"/>
	<path class="st0" d="M15,13c-1.1,0-2,0.9-2,2s0.9,2,2,2s2-0.9,2-2S16.1,13,15,13z M11,15c0-2.21,1.79-4,4-4s4,1.79,4,4s-1.79,4-4,4
		S11,17.21,11,15z"/>
</g>
</svg>
