<?xml version="1.0" encoding="utf-8"?>
<!-- Generator: Adobe Illustrator 24.1.3, SVG Export Plug-In . SVG Version: 6.00 Build 0)  -->
<svg version="1.1" id="レイヤー_1" xmlns="http://www.w3.org/2000/svg" xmlns:xlink="http://www.w3.org/1999/xlink" x="0px"
	 y="0px" viewBox="0 0 30 30" style="enable-background:new 0 0 30 30;" xml:space="preserve">
<style type="text/css">
	.st0{fill-rule:evenodd;clip-rule:evenodd;fill:#37352F;}
	.st1{fill:#37352F;}
	.st2{fill-rule:evenodd;clip-rule:evenodd;}
	.st3{fill:#37352F;fill-opacity:0.3;}
</style>
<g>
	<path class="st0" d="M12.41,5.07C13.1,4.39,14.03,4,15,4s1.9,0.39,2.59,1.07c0.69,0.69,1.07,1.62,1.07,2.59V15
		c0,0.97-0.39,1.91-1.07,2.59c-0.69,0.69-1.62,1.07-2.59,1.07s-1.9-0.39-2.59-1.07c-0.69-0.69-1.07-1.62-1.07-2.59V7.67
		C11.33,6.69,11.72,5.76,12.41,5.07z M15,5.83c-0.49,0-0.95,0.19-1.3,0.54c-0.34,0.34-0.54,0.81-0.54,1.3V15
		c0,0.49,0.19,0.95,0.54,1.3c0.34,0.34,0.81,0.54,1.3,0.54s0.95-0.19,1.3-0.54c0.34-0.34,0.54-0.81,0.54-1.3V7.67
		c0-0.49-0.19-0.95-0.54-1.3C15.95,6.03,15.49,5.83,15,5.83z"/>
	<path class="st0" d="M8.58,12.25c0.51,0,0.92,0.41,0.92,0.92V15c0,1.46,0.58,2.86,1.61,3.89c1.03,1.03,2.43,1.61,3.89,1.61
		s2.86-0.58,3.89-1.61c1.03-1.03,1.61-2.43,1.61-3.89v-1.83c0-0.51,0.41-0.92,0.92-0.92c0.51,0,0.92,0.41,0.92,0.92V15
		c0,1.94-0.77,3.81-2.15,5.19c-1.38,1.38-3.24,2.15-5.19,2.15s-3.81-0.77-5.19-2.15C8.44,18.81,7.67,16.94,7.67,15v-1.83
		C7.67,12.66,8.08,12.25,8.58,12.25z"/>
	<path class="st0" d="M15,20.5c0.51,0,0.92,0.41,0.92,0.92v3.67c0,0.51-0.41,0.92-0.92,0.92s-0.92-0.41-0.92-0.92v-3.67
		C14.08,20.91,14.49,20.5,15,20.5z"/>
	<path class="st0" d="M10.42,25.08c0-0.51,0.41-0.92,0.92-0.92h7.33c0.51,0,0.92,0.41,0.92,0.92c0,0.51-0.41,0.92-0.92,0.92h-7.33
		C10.83,26,10.42,25.59,10.42,25.08z"/>
	<path class="st0" d="M4.27,4.27c0.36-0.36,0.94-0.36,1.3,0l20.17,20.17c0.36,0.36,0.36,0.94,0,1.3c-0.36,0.36-0.94,0.36-1.3,0
		L4.27,5.56C3.91,5.21,3.91,4.63,4.27,4.27z"/>
</g>
</svg>
