<?xml version="1.0" encoding="utf-8"?>
<!-- Generator: Adobe Illustrator 24.1.3, SVG Export Plug-In . SVG Version: 6.00 Build 0)  -->
<svg version="1.1" id="レイヤー_1" xmlns="http://www.w3.org/2000/svg" xmlns:xlink="http://www.w3.org/1999/xlink" x="0px"
	 y="0px" viewBox="0 0 30 30" style="enable-background:new 0 0 30 30;" xml:space="preserve">
<style type="text/css">
	.st0{fill-rule:evenodd;clip-rule:evenodd;fill:#37352F;}
	.st1{fill:#37352F;}
	.st2{fill-rule:evenodd;clip-rule:evenodd;}
	.st3{fill:#37352F;fill-opacity:0.3;}
</style>
<g>
	<path class="st2" d="M13,15c0-1.1,0.9-2,2-2s2,0.9,2,2s-0.9,2-2,2S13,16.1,13,15z"/>
	<path class="st2" d="M20,15c0-1.1,0.9-2,2-2s2,0.9,2,2s-0.9,2-2,2S20,16.1,20,15z"/>
	<path class="st2" d="M6,15c0-1.1,0.9-2,2-2s2,0.9,2,2s-0.9,2-2,2S6,16.1,6,15z"/>
</g>
</svg>
