<?xml version="1.0" encoding="utf-8"?>
<!-- Generator: Adobe Illustrator 24.1.3, SVG Export Plug-In . SVG Version: 6.00 Build 0)  -->
<svg version="1.1" id="レイヤー_1" xmlns="http://www.w3.org/2000/svg" xmlns:xlink="http://www.w3.org/1999/xlink" x="0px"
	 y="0px" viewBox="0 0 30 30" style="enable-background:new 0 0 30 30;" xml:space="preserve">
<style type="text/css">
	.st0{fill-rule:evenodd;clip-rule:evenodd;fill:#37352F;}
	.st1{fill:#37352F;}
	.st2{fill-rule:evenodd;clip-rule:evenodd;}
	.st3{fill:#37352F;fill-opacity:0.3;}
</style>
<g>
	<path d="M16.78,23.91c-0.49,0-0.89-0.4-0.89-0.89v-1.78c0-1.47-1.2-2.67-2.67-2.67H9.65c-1.47,0-2.67,1.2-2.67,2.67v1.78
		c0,0.49-0.4,0.89-0.89,0.89s-0.89-0.4-0.89-0.89v-1.78c0-2.46,2-4.45,4.45-4.45h3.56c2.46,0,4.45,2,4.45,4.45v1.78
		C17.67,23.51,17.27,23.91,16.78,23.91z"/>
	<path d="M11.44,15c-2.46,0-4.45-2-4.45-4.45c0-2.46,2-4.45,4.45-4.45c2.46,0,4.45,2,4.45,4.45C15.89,13,13.89,15,11.44,15z
		 M11.44,7.87c-1.47,0-2.67,1.2-2.67,2.67s1.2,2.67,2.67,2.67c1.47,0,2.67-1.2,2.67-2.67S12.91,7.87,11.44,7.87z"/>
	<path d="M21.5,15c-0.1,0-0.2-0.02-0.3-0.05c-0.46-0.16-0.71-0.67-0.54-1.14c0.38-1.07,0.57-2.17,0.57-3.27
		c0-1.1-0.19-2.2-0.57-3.27c-0.16-0.46,0.08-0.97,0.54-1.14c0.47-0.16,0.97,0.08,1.14,0.54c0.45,1.26,0.68,2.56,0.68,3.86
		c0,1.3-0.23,2.6-0.68,3.86C22.21,14.77,21.87,15,21.5,15z"/>
	<path d="M17.6,15c-0.15,0-0.31-0.04-0.45-0.12c-0.43-0.25-0.57-0.79-0.32-1.22c0.55-0.95,0.84-2.03,0.84-3.12
		c0-1.09-0.29-2.17-0.84-3.12c-0.25-0.43-0.1-0.97,0.32-1.22c0.43-0.25,0.97-0.1,1.22,0.32c0.71,1.22,1.08,2.61,1.08,4.01
		c0,1.4-0.37,2.79-1.08,4.01C18.21,14.84,17.91,15,17.6,15z"/>
	<path d="M23.91,23.91c-0.49,0-0.89-0.4-0.89-0.89v-1.78c0-1.1-0.19-2.2-0.57-3.27c-0.16-0.46,0.08-0.97,0.54-1.14
		c0.46-0.16,0.97,0.08,1.14,0.54c0.44,1.26,0.67,2.56,0.67,3.86v1.78C24.8,23.51,24.4,23.91,23.91,23.91z"/>
	<path d="M20.35,23.91c-0.49,0-0.89-0.4-0.89-0.89v-1.78c0-1.09-0.29-2.16-0.84-3.12c-0.25-0.43-0.1-0.97,0.32-1.22
		c0.43-0.25,0.97-0.1,1.22,0.32c0.71,1.22,1.08,2.61,1.08,4.01v1.78C21.24,23.51,20.84,23.91,20.35,23.91z"/>
</g>
</svg>
