<?xml version="1.0" encoding="utf-8"?>
<!-- Generator: Adobe Illustrator 24.1.3, SVG Export Plug-In . SVG Version: 6.00 Build 0)  -->
<svg version="1.1" id="レイヤー_1" xmlns="http://www.w3.org/2000/svg" xmlns:xlink="http://www.w3.org/1999/xlink" x="0px"
	 y="0px" viewBox="0 0 30 30" style="enable-background:new 0 0 30 30;" xml:space="preserve">
<style type="text/css">
	.st0{fill-rule:evenodd;clip-rule:evenodd;fill:#37352F;}
	.st1{fill:#37352F;}
	.st2{fill-rule:evenodd;clip-rule:evenodd;}
	.st3{fill:#37352F;fill-opacity:0.3;}
</style>
<g>
	<path class="st0" d="M7.89,6.82c-0.59,0-1.07,0.48-1.07,1.07v14.22c0,0.59,0.48,1.07,1.07,1.07h14.22c0.59,0,1.07-0.48,1.07-1.07
		V7.89c0-0.59-0.48-1.07-1.07-1.07H7.89z M5,7.89C5,6.29,6.29,5,7.89,5h14.22C23.71,5,25,6.29,25,7.89v14.22
		c0,1.6-1.29,2.89-2.89,2.89H7.89C6.29,25,5,23.71,5,22.11V7.89z"/>
	<path class="st0" d="M10.45,5c0.5,0,0.91,0.41,0.91,0.91v18.18c0,0.5-0.41,0.91-0.91,0.91c-0.5,0-0.91-0.41-0.91-0.91V5.91
		C9.55,5.41,9.95,5,10.45,5z"/>
	<path class="st0" d="M19.55,5c0.5,0,0.91,0.41,0.91,0.91v18.18c0,0.5-0.41,0.91-0.91,0.91s-0.91-0.41-0.91-0.91V5.91
		C18.64,5.41,19.04,5,19.55,5z"/>
	<path class="st0" d="M5,15c0-0.5,0.41-0.91,0.91-0.91h18.18c0.5,0,0.91,0.41,0.91,0.91s-0.41,0.91-0.91,0.91H5.91
		C5.41,15.91,5,15.5,5,15z"/>
	<path class="st0" d="M5,10.45c0-0.5,0.41-0.91,0.91-0.91h4.55c0.5,0,0.91,0.41,0.91,0.91s-0.41,0.91-0.91,0.91H5.91
		C5.41,11.36,5,10.96,5,10.45z"/>
	<path class="st0" d="M5,19.55c0-0.5,0.41-0.91,0.91-0.91h4.55c0.5,0,0.91,0.41,0.91,0.91s-0.41,0.91-0.91,0.91H5.91
		C5.41,20.45,5,20.05,5,19.55z"/>
	<path class="st0" d="M18.64,19.55c0-0.5,0.41-0.91,0.91-0.91h4.55c0.5,0,0.91,0.41,0.91,0.91s-0.41,0.91-0.91,0.91h-4.55
		C19.04,20.45,18.64,20.05,18.64,19.55z"/>
	<path class="st0" d="M18.64,10.45c0-0.5,0.41-0.91,0.91-0.91h4.55c0.5,0,0.91,0.41,0.91,0.91s-0.41,0.91-0.91,0.91h-4.55
		C19.04,11.36,18.64,10.96,18.64,10.45z"/>
</g>
</svg>
