<?xml version="1.0" encoding="utf-8"?>
<!-- Generator: Adobe Illustrator 24.1.3, SVG Export Plug-In . SVG Version: 6.00 Build 0)  -->
<svg version="1.1" id="レイヤー_1" xmlns="http://www.w3.org/2000/svg" xmlns:xlink="http://www.w3.org/1999/xlink" x="0px"
	 y="0px" viewBox="0 0 30 30" style="enable-background:new 0 0 30 30;" xml:space="preserve">
<style type="text/css">
	.st0{fill-rule:evenodd;clip-rule:evenodd;fill:#37352F;}
	.st1{fill:#37352F;}
	.st2{fill-rule:evenodd;clip-rule:evenodd;}
	.st3{fill:#37352F;fill-opacity:0.3;}
</style>
<g>
	<path class="st0" d="M9,8C8.73,8,8.48,8.11,8.29,8.29C8.11,8.48,8,8.73,8,9v14c0,0.26,0.11,0.52,0.29,0.71C8.48,23.89,8.73,24,9,24
		h12c0.27,0,0.52-0.11,0.71-0.29C21.89,23.52,22,23.26,22,23V9c0-0.27-0.11-0.52-0.29-0.71C21.52,8.11,21.27,8,21,8h-2
		c-0.55,0-1-0.45-1-1s0.45-1,1-1h2c0.8,0,1.56,0.32,2.12,0.88C23.68,7.44,24,8.2,24,9v14c0,0.8-0.32,1.56-0.88,2.12
		C22.56,25.68,21.8,26,21,26H9c-0.8,0-1.56-0.32-2.12-0.88C6.32,24.56,6,23.8,6,23V9c0-0.8,0.32-1.56,0.88-2.12C7.44,6.32,8.2,6,9,6
		h2c0.55,0,1,0.45,1,1s-0.45,1-1,1H9z"/>
	<path class="st0" d="M10,6c0-1.1,0.89-2,2-2h6c1.11,0,2,0.9,2,2v2c0,1.1-0.89,2-2,2h-6c-1.11,0-2-0.9-2-2V6z M18,6h-6v2h6V6z"/>
</g>
</svg>
