<?xml version="1.0" encoding="utf-8"?>
<!-- Generator: Adobe Illustrator 24.1.3, SVG Export Plug-In . SVG Version: 6.00 Build 0)  -->
<svg version="1.1" id="レイヤー_1" xmlns="http://www.w3.org/2000/svg" xmlns:xlink="http://www.w3.org/1999/xlink" x="0px"
	 y="0px" viewBox="0 0 30 30" style="enable-background:new 0 0 30 30;" xml:space="preserve">
<style type="text/css">
	.st0{fill-rule:evenodd;clip-rule:evenodd;fill:#37352F;}
	.st1{fill:#37352F;}
	.st2{fill-rule:evenodd;clip-rule:evenodd;}
	.st3{fill:#37352F;fill-opacity:0.3;}
</style>
<g>
	<path class="st0" d="M6.88,4.88C7.44,4.32,8.2,4,9,4h8c0.27,0,0.52,0.11,0.71,0.29l6,6C23.89,10.48,24,10.73,24,11v12
		c0,0.8-0.32,1.56-0.88,2.12C22.56,25.68,21.8,26,21,26H9c-0.8,0-1.56-0.32-2.12-0.88C6.32,24.56,6,23.8,6,23V7
		C6,6.2,6.32,5.44,6.88,4.88z M9,6C8.73,6,8.48,6.11,8.29,6.29C8.11,6.48,8,6.73,8,7v16c0,0.26,0.11,0.52,0.29,0.71
		C8.48,23.89,8.73,24,9,24h12c0.27,0,0.52-0.11,0.71-0.29C21.89,23.52,22,23.26,22,23V11.41L16.59,6H9z"/>
	<path class="st0" d="M17,4c0.55,0,1,0.45,1,1v5h5c0.55,0,1,0.45,1,1s-0.45,1-1,1h-6c-0.55,0-1-0.45-1-1V5C16,4.45,16.45,4,17,4z"/>
	<path class="st0" d="M10,16c0-0.55,0.45-1,1-1h8c0.55,0,1,0.45,1,1s-0.45,1-1,1h-8C10.45,17,10,16.55,10,16z"/>
	<path class="st0" d="M10,20c0-0.55,0.45-1,1-1h8c0.55,0,1,0.45,1,1s-0.45,1-1,1h-8C10.45,21,10,20.55,10,20z"/>
	<path class="st0" d="M10,12c0-0.55,0.45-1,1-1h2c0.55,0,1,0.45,1,1s-0.45,1-1,1h-2C10.45,13,10,12.55,10,12z"/>
</g>
</svg>
