<?xml version="1.0" encoding="utf-8"?>
<!-- Generator: Adobe Illustrator 24.1.3, SVG Export Plug-In . SVG Version: 6.00 Build 0)  -->
<svg version="1.1" id="レイヤー_1" xmlns="http://www.w3.org/2000/svg" xmlns:xlink="http://www.w3.org/1999/xlink" x="0px"
	 y="0px" viewBox="0 0 30 30" style="enable-background:new 0 0 30 30;" xml:space="preserve">
<style type="text/css">
	.st0{fill-rule:evenodd;clip-rule:evenodd;fill:#37352F;}
	.st1{fill:#37352F;}
	.st2{fill-rule:evenodd;clip-rule:evenodd;}
	.st3{fill:#37352F;fill-opacity:0.3;}
</style>
<g>
	<path class="st2" d="M8.39,8.2c2.27-2.01,5.19-3.03,8-3.03c2.4,0,4.76,0.75,6.54,2.31v0h0c2.53,2.24,2.53,5.94,0,8.18c0,0,0,0,0,0
		l-1.43,1.27l0,0c-0.2,0.18-0.25,0.35-0.25,0.47c0,0.12,0.05,0.29,0.25,0.47l0,0l0,0c0.13,0.12,0.19,0.15,0.25,0.18
		c0.07,0.03,0.18,0.07,0.43,0.11h0h0c0.02,0,0.04,0.01,0.07,0.01c0.35,0.06,1,0.16,1.48,0.6l-0.51,0.56l0.52-0.55
		c0.45,0.42,0.68,1.04,0.7,1.63c0.02,0.6-0.18,1.27-0.72,1.74c-1.99,1.77-4.76,2.67-7.53,2.67h-0.08h0
		c-2.77-0.02-5.6-0.93-7.72-2.81C4.1,18.23,4.1,11.99,8.39,8.2z M22.71,19.89c-0.11-0.1-0.32-0.16-0.77-0.23
		c-0.29-0.05-0.56-0.11-0.8-0.22c-0.26-0.12-0.45-0.27-0.64-0.44c-0.48-0.42-0.76-0.99-0.76-1.6c0-0.61,0.28-1.18,0.76-1.6
		l1.43-1.27l0,0c1.85-1.64,1.85-4.28,0-5.92c-1.46-1.28-3.44-1.94-5.54-1.94c-2.45,0-5.02,0.9-7,2.65v0l0,0
		c-3.6,3.18-3.6,8.37,0,11.55l0,0c1.8,1.59,4.26,2.41,6.72,2.43h0.08c2.47,0,4.86-0.8,6.53-2.28l0,0l0,0
		c0.14-0.12,0.22-0.32,0.21-0.56C22.92,20.21,22.82,20,22.71,19.89z"/>
	<path d="M9.71,14.24c0.83,0,1.51-0.68,1.51-1.51c0-0.83-0.68-1.51-1.51-1.51S8.2,11.9,8.2,12.73C8.2,13.57,8.87,14.24,9.71,14.24z"
		/>
	<path d="M10.09,19.11c0.83,0,1.51-0.68,1.51-1.51c0-0.83-0.68-1.51-1.51-1.51s-1.51,0.68-1.51,1.51
		C8.57,18.43,9.25,19.11,10.09,19.11z"/>
	<path d="M13.49,11.22c0.83,0,1.51-0.68,1.51-1.51c0-0.84-0.68-1.51-1.51-1.51c-0.83,0-1.51,0.68-1.51,1.51
		C11.98,10.54,12.65,11.22,13.49,11.22z"/>
	<path d="M15,22.51c1.25,0,2.27-1.01,2.27-2.27s-1.01-2.27-2.27-2.27c-1.25,0-2.27,1.01-2.27,2.27S13.75,22.51,15,22.51z"/>
	<path d="M18.4,11.22c0.84,0,1.51-0.68,1.51-1.51c0-0.84-0.68-1.51-1.51-1.51c-0.83,0-1.51,0.68-1.51,1.51
		C16.89,10.54,17.57,11.22,18.4,11.22z"/>
</g>
</svg>
