<?xml version="1.0" encoding="utf-8"?>
<!-- Generator: Adobe Illustrator 24.1.3, SVG Export Plug-In . SVG Version: 6.00 Build 0)  -->
<svg version="1.1" id="レイヤー_1" xmlns="http://www.w3.org/2000/svg" xmlns:xlink="http://www.w3.org/1999/xlink" x="0px"
	 y="0px" viewBox="0 0 30 30" style="enable-background:new 0 0 30 30;" xml:space="preserve">
<style type="text/css">
	.st0{fill-rule:evenodd;clip-rule:evenodd;fill:#37352F;}
	.st1{fill:#37352F;}
	.st2{fill-rule:evenodd;clip-rule:evenodd;}
	.st3{fill:#37352F;fill-opacity:0.3;}
</style>
<g>
	<path class="st0" d="M8,7C7.45,7,7,7.45,7,8v14c0,0.55,0.45,1,1,1h14c0.55,0,1-0.45,1-1V8c0-0.55-0.45-1-1-1H8z M5,8
		c0-1.66,1.34-3,3-3h14c1.66,0,3,1.34,3,3v14c0,1.66-1.34,3-3,3H8c-1.66,0-3-1.34-3-3V8z"/>
	<path class="st0" d="M11.5,11c-0.28,0-0.5,0.22-0.5,0.5s0.22,0.5,0.5,0.5s0.5-0.22,0.5-0.5S11.78,11,11.5,11z M9,11.5
		C9,10.12,10.12,9,11.5,9s2.5,1.12,2.5,2.5S12.88,14,11.5,14S9,12.88,9,11.5z"/>
	<path class="st0" d="M18.29,12.29c0.39-0.39,1.02-0.39,1.41,0l5,5c0.39,0.39,0.39,1.02,0,1.41c-0.39,0.39-1.02,0.39-1.41,0
		L19,14.41L8.71,24.71c-0.39,0.39-1.02,0.39-1.41,0c-0.39-0.39-0.39-1.02,0-1.41L18.29,12.29z"/>
</g>
</svg>
