<?xml version="1.0" encoding="utf-8"?>
<!-- Generator: Adobe Illustrator 24.1.3, SVG Export Plug-In . SVG Version: 6.00 Build 0)  -->
<svg version="1.1" id="レイヤー_1" xmlns="http://www.w3.org/2000/svg" xmlns:xlink="http://www.w3.org/1999/xlink" x="0px"
	 y="0px" viewBox="0 0 30 30" style="enable-background:new 0 0 30 30;" xml:space="preserve">
<style type="text/css">
	.st0{fill-rule:evenodd;clip-rule:evenodd;fill:#37352F;}
	.st1{fill:#37352F;}
	.st2{fill-rule:evenodd;clip-rule:evenodd;}
	.st3{fill:#37352F;fill-opacity:0.3;}
</style>
<g>
	<path class="st0" d="M15,6c-4.97,0-9,4.03-9,9s4.03,9,9,9c4.97,0,9-4.03,9-9S19.97,6,15,6z M4,15C4,8.92,8.92,4,15,4
		c6.08,0,11,4.92,11,11c0,6.07-4.92,11-11,11C8.92,26,4,21.07,4,15z"/>
	<path class="st0" d="M12.53,10.12c0.33-0.17,0.72-0.15,1.03,0.05l6,4C19.83,14.35,20,14.67,20,15s-0.17,0.65-0.45,0.83l-6,4
		c-0.31,0.2-0.7,0.22-1.03,0.05C12.2,19.71,12,19.37,12,19v-8C12,10.63,12.2,10.29,12.53,10.12z M14,12.87v4.26L17.2,15L14,12.87z"
		/>
</g>
</svg>
