<?xml version="1.0" encoding="utf-8"?>
<!-- Generator: Adobe Illustrator 24.1.3, SVG Export Plug-In . SVG Version: 6.00 Build 0)  -->
<svg version="1.1" id="レイヤー_1" xmlns="http://www.w3.org/2000/svg" xmlns:xlink="http://www.w3.org/1999/xlink" x="0px"
	 y="0px" viewBox="0 0 30 30" style="enable-background:new 0 0 30 30;" xml:space="preserve">
<style type="text/css">
	.st0{fill-rule:evenodd;clip-rule:evenodd;fill:#37352F;}
	.st1{fill:#37352F;}
	.st2{fill-rule:evenodd;clip-rule:evenodd;}
	.st3{fill:#37352F;fill-opacity:0.3;}
</style>
<g>
	<path class="st1" d="M21.79,18.57h-2.86c-0.2,0-0.36,0.16-0.36,0.36v2.86c0,0.2,0.16,0.36,0.36,0.36h2.86
		c0.2,0,0.36-0.16,0.36-0.36v-2.86C22.14,18.73,21.98,18.57,21.79,18.57z"/>
	<path class="st1" d="M18.21,15.71h-2.14c-0.2,0-0.36,0.16-0.36,0.36v2.14c0,0.2,0.16,0.36,0.36,0.36h2.14
		c0.2,0,0.36-0.16,0.36-0.36v-2.14C18.57,15.87,18.41,15.71,18.21,15.71z"/>
	<path class="st1" d="M24.64,22.14H22.5c-0.2,0-0.36,0.16-0.36,0.36v2.14c0,0.2,0.16,0.36,0.36,0.36h2.14c0.2,0,0.36-0.16,0.36-0.36
		V22.5C25,22.3,24.84,22.14,24.64,22.14z"/>
	<path class="st1" d="M24.64,15.71h-1.43c-0.2,0-0.36,0.16-0.36,0.36v1.43c0,0.2,0.16,0.36,0.36,0.36h1.43
		c0.2,0,0.36-0.16,0.36-0.36v-1.43C25,15.87,24.84,15.71,24.64,15.71z"/>
	<path class="st1" d="M17.5,22.86h-1.43c-0.2,0-0.36,0.16-0.36,0.36v1.43c0,0.2,0.16,0.36,0.36,0.36h1.43c0.2,0,0.36-0.16,0.36-0.36
		v-1.43C17.86,23.02,17.7,22.86,17.5,22.86z"/>
	<path class="st1" d="M21.79,7.86h-2.86c-0.2,0-0.36,0.16-0.36,0.36v2.86c0,0.2,0.16,0.36,0.36,0.36h2.86c0.2,0,0.36-0.16,0.36-0.36
		V8.21C22.14,8.02,21.98,7.86,21.79,7.86z"/>
	<path class="st0" d="M15.71,6.43c0-0.79,0.64-1.43,1.43-1.43h6.43C24.36,5,25,5.64,25,6.43v6.43c0,0.79-0.64,1.43-1.43,1.43h-6.43
		c-0.79,0-1.43-0.64-1.43-1.43V6.43z M23.57,6.43h-6.43v6.43h6.43V6.43z"/>
	<path class="st1" d="M11.07,7.86H8.21c-0.2,0-0.36,0.16-0.36,0.36v2.86c0,0.2,0.16,0.36,0.36,0.36h2.86c0.2,0,0.36-0.16,0.36-0.36
		V8.21C11.43,8.02,11.27,7.86,11.07,7.86z"/>
	<path class="st0" d="M5,6.43C5,5.64,5.64,5,6.43,5h6.43c0.79,0,1.43,0.64,1.43,1.43v6.43c0,0.79-0.64,1.43-1.43,1.43H6.43
		C5.64,14.29,5,13.65,5,12.86V6.43z M12.86,6.43H6.43v6.43h6.43V6.43z"/>
	<path class="st1" d="M11.07,18.57H8.21c-0.2,0-0.36,0.16-0.36,0.36v2.86c0,0.2,0.16,0.36,0.36,0.36h2.86c0.2,0,0.36-0.16,0.36-0.36
		v-2.86C11.43,18.73,11.27,18.57,11.07,18.57z"/>
	<path class="st0" d="M5,17.14c0-0.79,0.64-1.43,1.43-1.43h6.43c0.79,0,1.43,0.64,1.43,1.43v6.43c0,0.79-0.64,1.43-1.43,1.43H6.43
		C5.64,25,5,24.36,5,23.57V17.14z M12.86,17.14H6.43v6.43h6.43V17.14z"/>
</g>
</svg>
