<?xml version="1.0" encoding="utf-8"?>
<!-- Generator: Adobe Illustrator 24.1.3, SVG Export Plug-In . SVG Version: 6.00 Build 0)  -->
<svg version="1.1" id="レイヤー_1" xmlns="http://www.w3.org/2000/svg" xmlns:xlink="http://www.w3.org/1999/xlink" x="0px"
	 y="0px" viewBox="0 0 30 30" style="enable-background:new 0 0 30 30;" xml:space="preserve">
<style type="text/css">
	.st0{fill-rule:evenodd;clip-rule:evenodd;fill:#37352F;}
	.st1{fill:#37352F;}
	.st2{fill-rule:evenodd;clip-rule:evenodd;}
	.st3{fill:#37352F;fill-opacity:0.3;}
</style>
<g>
	<path class="st0" d="M12.24,11.45c0.82-0.55,1.78-0.84,2.76-0.84c0.6,0,1.02,0.02,1.33,0.05c0.27,0.03,0.56,0.08,0.77,0.21
		c0.12,0.07,0.34,0.24,0.4,0.56c0.06,0.32-0.09,0.55-0.17,0.64c-0.08,0.1-0.17,0.16-0.21,0.19c-0.03,0.02-0.05,0.03-0.06,0.04
		c-0.01,0-0.02,0.01-0.02,0.01c0,0-0.01,0-0.01,0l0,0l0,0l0,0c0,0,0,0-0.33-0.66l0.33,0.66c-0.32,0.16-0.69,0.06-0.91-0.2
		c-0.23-0.02-0.59-0.04-1.11-0.04c-0.69,0-1.37,0.2-1.94,0.59c-0.57,0.38-1.02,0.93-1.29,1.57c-0.26,0.64-0.33,1.34-0.2,2.02
		c0.13,0.68,0.47,1.3,0.96,1.79s1.11,0.82,1.79,0.96c0.68,0.13,1.38,0.07,2.02-0.2c0.64-0.26,1.18-0.71,1.57-1.29
		c0.38-0.57,0.59-1.25,0.59-1.94c0-0.41,0.33-0.74,0.74-0.74c0.41,0,0.74,0.33,0.74,0.74c0,0.98-0.29,1.94-0.84,2.76
		c-0.55,0.82-1.32,1.45-2.23,1.83c-0.91,0.38-1.91,0.47-2.87,0.28c-0.96-0.19-1.85-0.67-2.55-1.36c-0.7-0.7-1.17-1.58-1.36-2.55
		c-0.19-0.96-0.09-1.96,0.28-2.87C10.78,12.77,11.42,11.99,12.24,11.45z M16.36,11C16.36,11,16.36,11,16.36,11L16.36,11L16.36,11z"
		/>
	<path class="st0" d="M14.48,8.82c0.29-0.29,0.76-0.29,1.05,0l2.12,2.12c0.29,0.29,0.29,0.76,0,1.05l-2.12,2.12
		c-0.29,0.29-0.76,0.29-1.05,0c-0.29-0.29-0.29-0.76,0-1.05l1.59-1.59l-1.59-1.59C14.19,9.58,14.19,9.11,14.48,8.82z"/>
	<path class="st0" d="M4,15C4,8.93,8.93,4,15,4s11,4.93,11,11c0,6.07-4.93,11-11,11S4,21.07,4,15z M15,5.69
		c-5.14,0-9.31,4.17-9.31,9.31c0,5.14,4.17,9.31,9.31,9.31s9.31-4.17,9.31-9.31C24.31,9.86,20.14,5.69,15,5.69z"/>
</g>
</svg>
