<?xml version="1.0" encoding="utf-8"?>
<!-- Generator: Adobe Illustrator 24.1.3, SVG Export Plug-In . SVG Version: 6.00 Build 0)  -->
<svg version="1.1" id="レイヤー_1" xmlns="http://www.w3.org/2000/svg" xmlns:xlink="http://www.w3.org/1999/xlink" x="0px"
	 y="0px" viewBox="0 0 30 30" style="enable-background:new 0 0 30 30;" xml:space="preserve">
<style type="text/css">
	.st0{fill-rule:evenodd;clip-rule:evenodd;fill:#37352F;}
	.st1{fill:#37352F;}
	.st2{fill-rule:evenodd;clip-rule:evenodd;}
	.st3{fill:#37352F;fill-opacity:0.3;}
</style>
<g>
	<path class="st0" d="M7,7C6.45,7,6,7.45,6,8v10c0,0.55,0.45,1,1,1h16c0.55,0,1-0.45,1-1V8c0-0.55-0.45-1-1-1H7z M4,8
		c0-1.66,1.34-3,3-3h16c1.66,0,3,1.34,3,3v10c0,1.66-1.34,3-3,3H7c-1.66,0-3-1.34-3-3V8z"/>
	<path class="st0" d="M10,24c0-0.55,0.45-1,1-1h8c0.55,0,1,0.45,1,1s-0.45,1-1,1h-8C10.45,25,10,24.55,10,24z"/>
	<path class="st0" d="M15,19c0.55,0,1,0.45,1,1v4c0,0.55-0.45,1-1,1s-1-0.45-1-1v-4C14,19.45,14.45,19,15,19z"/>
	<path class="st0" d="M15.18,8.33c0.13,0.22,0.11,0.5-0.04,0.71c-0.39,0.53-0.58,1.18-0.53,1.83c0.05,0.65,0.33,1.27,0.79,1.73
		c0.46,0.46,1.08,0.75,1.73,0.79c0.65,0.05,1.3-0.14,1.83-0.53c0,0,0.53-0.12,0.75,0c0.22,0.13,0.29,0.58,0.29,0.58
		c-0.09,0.95-0.44,1.85-1.02,2.6c-0.58,0.75-1.37,1.32-2.26,1.65c-0.9,0.32-1.86,0.38-2.79,0.18c-0.93-0.21-1.78-0.67-2.45-1.35
		s-1.14-1.52-1.35-2.45c-0.21-0.93-0.14-1.9,0.18-2.79c0.32-0.89,0.89-1.68,1.65-2.26C12.7,8.45,13.6,8.09,14.55,8
		C14.81,7.98,15.05,8.11,15.18,8.33z M18.36,14.58c-0.43,0.11-0.88,0.15-1.32,0.12c-0.97-0.07-1.87-0.49-2.56-1.17
		c-0.68-0.68-1.1-1.59-1.17-2.56c-0.03-0.45,0.01-0.9,0.12-1.33c-0.24,0.11-0.47,0.25-0.68,0.42c-0.56,0.43-0.98,1.01-1.22,1.67
		c-0.24,0.66-0.28,1.38-0.13,2.06c0.15,0.69,0.5,1.32,1,1.81c0.5,0.5,1.13,0.84,1.81,1c0.69,0.15,1.4,0.11,2.07-0.13
		c0.66-0.24,1.24-0.66,1.67-1.22C18.11,15.04,18.25,14.82,18.36,14.58z"/>
</g>
</svg>
