<?xml version="1.0" encoding="utf-8"?>
<!-- Generator: Adobe Illustrator 24.1.3, SVG Export Plug-In . SVG Version: 6.00 Build 0)  -->
<svg version="1.1" id="レイヤー_1" xmlns="http://www.w3.org/2000/svg" xmlns:xlink="http://www.w3.org/1999/xlink" x="0px"
	 y="0px" viewBox="0 0 30 30" style="enable-background:new 0 0 30 30;" xml:space="preserve">
<style type="text/css">
	.st0{fill-rule:evenodd;clip-rule:evenodd;fill:#37352F;}
	.st1{fill:#37352F;}
	.st2{fill-rule:evenodd;clip-rule:evenodd;}
	.st3{fill:#37352F;fill-opacity:0.3;}
</style>
<g>
	<path class="st0" d="M15,13c-1.1,0-2,0.9-2,2s0.9,2,2,2c1.11,0,2-0.9,2-2S16.11,13,15,13z M11,15c0-2.21,1.79-4,4-4
		c2.21,0,4,1.79,4,4s-1.79,4-4,4C12.79,19,11,17.21,11,15z"/>
	<path class="st0" d="M15,5c-0.26,0-0.52,0.11-0.71,0.29C14.1,5.48,14,5.73,14,6v0.17c0,0.52-0.15,1.02-0.44,1.45
		c-0.29,0.43-0.69,0.77-1.17,0.97c-0.08,0.04-0.17,0.06-0.26,0.07c-0.43,0.15-0.9,0.19-1.35,0.11c-0.52-0.09-1-0.34-1.38-0.71
		L9.39,8.06L9.33,8C9.24,7.9,9.13,7.83,9.01,7.78C8.89,7.73,8.76,7.7,8.62,7.7S8.36,7.73,8.24,7.78C8.12,7.83,8.01,7.9,7.92,8l0,0
		C7.82,8.09,7.75,8.2,7.7,8.32C7.65,8.44,7.62,8.57,7.62,8.7S7.65,8.97,7.7,9.09c0.05,0.12,0.12,0.23,0.22,0.32l0.07,0.07
		c0.37,0.38,0.62,0.86,0.71,1.38c0.09,0.51,0.03,1.04-0.17,1.51c-0.18,0.49-0.51,0.91-0.93,1.21c-0.43,0.31-0.95,0.48-1.48,0.49
		l-0.02,0H6c-0.26,0-0.52,0.11-0.71,0.29C5.1,14.56,5,14.81,5,15.08s0.1,0.52,0.29,0.71c0.19,0.19,0.44,0.29,0.71,0.29h0.17
		c0.52,0,1.02,0.16,1.45,0.44c0.43,0.28,0.77,0.69,0.97,1.16c0.21,0.48,0.27,1.02,0.18,1.54c-0.1,0.52-0.34,1-0.71,1.38l-0.01,0.01
		L8,20.67c-0.09,0.09-0.17,0.2-0.22,0.32c-0.05,0.12-0.08,0.25-0.08,0.38s0.03,0.26,0.08,0.38C7.83,21.88,7.9,21.99,8,22.08l0,0
		c0.09,0.09,0.2,0.17,0.32,0.22c0.12,0.05,0.25,0.08,0.38,0.08s0.26-0.03,0.38-0.08c0.12-0.05,0.23-0.12,0.32-0.22l0.07-0.07
		c0.38-0.37,0.86-0.62,1.38-0.71c0.51-0.09,1.04-0.03,1.51,0.17c0.49,0.19,0.91,0.51,1.21,0.93c0.31,0.43,0.48,0.95,0.49,1.48v0.02
		V24c0,0.27,0.1,0.52,0.29,0.71c0.19,0.19,0.44,0.29,0.71,0.29c0.27,0,0.52-0.11,0.71-0.29c0.19-0.19,0.29-0.44,0.29-0.71v-0.17v0
		c0-0.52,0.15-1.02,0.44-1.45c0.28-0.43,0.69-0.77,1.16-0.97c0.48-0.21,1.02-0.28,1.54-0.18c0.52,0.09,1,0.34,1.38,0.71l0.01,0.01
		L20.67,22c0.09,0.09,0.2,0.17,0.33,0.22c0.12,0.05,0.25,0.08,0.38,0.08s0.26-0.03,0.38-0.08c0.12-0.05,0.23-0.12,0.33-0.22v0
		c0.09-0.09,0.17-0.2,0.22-0.32c0.05-0.12,0.08-0.25,0.08-0.38s-0.03-0.26-0.08-0.38c-0.05-0.12-0.12-0.23-0.22-0.32l-0.07-0.07
		c-0.37-0.38-0.62-0.86-0.71-1.38c-0.09-0.52-0.03-1.05,0.18-1.54c0.2-0.47,0.54-0.88,0.97-1.16c0.43-0.29,0.94-0.44,1.45-0.44h0H24
		c0.27,0,0.52-0.11,0.71-0.29C24.89,15.52,25,15.27,25,15s-0.11-0.52-0.29-0.71C24.52,14.11,24.27,14,24,14h-0.17h0
		c-0.52,0-1.02-0.16-1.45-0.44c-0.43-0.29-0.77-0.69-0.97-1.17c-0.04-0.08-0.06-0.17-0.07-0.26c-0.15-0.43-0.19-0.9-0.11-1.35
		c0.1-0.52,0.34-1,0.71-1.38l0.01-0.01L22,9.33c0.09-0.09,0.17-0.2,0.22-0.32c0.05-0.12,0.08-0.25,0.08-0.38s-0.03-0.26-0.08-0.38
		C22.17,8.12,22.1,8.01,22,7.92l0,0c-0.09-0.09-0.2-0.17-0.32-0.22c-0.12-0.05-0.25-0.08-0.38-0.08c-0.13,0-0.26,0.03-0.38,0.08
		c-0.12,0.05-0.23,0.12-0.32,0.22l-0.07,0.07c-0.38,0.37-0.86,0.62-1.38,0.71c-0.52,0.09-1.05,0.03-1.54-0.18
		c-0.47-0.2-0.88-0.54-1.16-0.97C16.15,7.12,16,6.61,16,6.09v0V6c0-0.27-0.11-0.52-0.29-0.71C15.52,5.11,15.27,5,15,5z M22.4,18
		l0.92,0.4c-0.05,0.12-0.07,0.25-0.05,0.38c0.02,0.13,0.08,0.24,0.17,0.34l0.06,0.05c0,0,0,0,0,0c0.28,0.28,0.5,0.61,0.65,0.97
		c0.15,0.36,0.23,0.75,0.23,1.15s-0.08,0.78-0.23,1.15s-0.37,0.7-0.65,0.97l-0.71-0.71l0.71,0.71c-0.28,0.28-0.61,0.5-0.97,0.65
		c-0.36,0.15-0.75,0.23-1.15,0.23s-0.79-0.08-1.15-0.23c-0.36-0.15-0.7-0.37-0.97-0.65c0,0,0,0,0,0l-0.05-0.06
		c-0.09-0.09-0.21-0.15-0.34-0.17c-0.13-0.02-0.26-0.01-0.38,0.04l-0.01,0c-0.12,0.05-0.22,0.13-0.29,0.24
		c-0.07,0.11-0.11,0.23-0.11,0.35V24c0,0.8-0.32,1.56-0.88,2.12C16.64,26.68,15.88,27,15.08,27c-0.8,0-1.56-0.32-2.12-0.88
		c-0.56-0.56-0.88-1.33-0.88-2.12v-0.08c-0.01-0.13-0.05-0.25-0.12-0.35c-0.08-0.11-0.18-0.19-0.3-0.23
		c-0.02-0.01-0.04-0.02-0.06-0.02c-0.12-0.05-0.25-0.07-0.38-0.04c-0.13,0.02-0.24,0.08-0.34,0.17l-0.06,0.05c0,0,0,0,0,0
		c-0.28,0.28-0.61,0.5-0.97,0.65c-0.36,0.15-0.76,0.23-1.15,0.23s-0.79-0.08-1.15-0.23C7.19,24,6.86,23.78,6.58,23.5
		c-0.28-0.28-0.5-0.61-0.65-0.97c-0.15-0.36-0.23-0.75-0.23-1.15s0.08-0.78,0.23-1.15c0.15-0.36,0.37-0.7,0.65-0.97l0.06-0.05
		c0.09-0.09,0.15-0.21,0.17-0.34c0.02-0.13,0.01-0.26-0.04-0.38l0-0.01c-0.05-0.12-0.13-0.22-0.24-0.29
		c-0.1-0.07-0.23-0.11-0.35-0.11H6c-0.8,0-1.56-0.32-2.12-0.88C3.32,16.64,3,15.88,3,15.08s0.32-1.56,0.88-2.12
		C4.44,12.4,5.2,12.08,6,12.08h0.08c0.13,0,0.25-0.05,0.35-0.12c0.11-0.08,0.19-0.18,0.23-0.3c0.01-0.02,0.02-0.04,0.02-0.06
		c0.05-0.12,0.07-0.25,0.04-0.38c-0.02-0.13-0.08-0.24-0.17-0.34L6.5,10.83C6.22,10.55,6,10.22,5.85,9.85
		C5.7,9.49,5.62,9.1,5.62,8.7S5.7,7.92,5.85,7.56C6,7.19,6.22,6.86,6.5,6.58c0.28-0.28,0.61-0.5,0.97-0.65
		C7.84,5.78,8.23,5.7,8.62,5.7s0.79,0.08,1.15,0.23c0.36,0.15,0.69,0.37,0.97,0.65l0.06,0.05c0.09,0.09,0.21,0.15,0.34,0.17
		c0.13,0.02,0.26,0.01,0.38-0.04c0.06-0.03,0.13-0.05,0.2-0.06c0.07-0.05,0.13-0.11,0.18-0.18C11.96,6.42,12,6.29,12,6.17V6
		c0-0.8,0.32-1.56,0.88-2.12C13.44,3.32,14.2,3,15,3c0.8,0,1.56,0.32,2.12,0.88C17.68,4.44,18,5.2,18,6v0.09
		c0,0.13,0.04,0.25,0.11,0.35c0.07,0.11,0.17,0.19,0.29,0.24l0.01,0c0.12,0.05,0.25,0.07,0.38,0.04c0.13-0.02,0.24-0.08,0.34-0.17
		l0.05-0.05c0.28-0.28,0.61-0.5,0.97-0.65c0.36-0.15,0.76-0.23,1.15-0.23c0.39,0,0.78,0.08,1.15,0.23c0.36,0.15,0.7,0.37,0.97,0.65
		c0.28,0.28,0.5,0.61,0.65,0.97c0.15,0.36,0.23,0.75,0.23,1.15s-0.08,0.78-0.23,1.15c-0.15,0.36-0.37,0.69-0.65,0.97c0,0,0,0,0,0
		l-0.05,0.06c-0.09,0.09-0.15,0.21-0.17,0.34c-0.02,0.13-0.01,0.26,0.04,0.38c0.03,0.06,0.05,0.13,0.06,0.2
		c0.05,0.07,0.11,0.13,0.18,0.18c0.11,0.07,0.23,0.11,0.36,0.11H24c0.8,0,1.56,0.32,2.12,0.88C26.68,13.44,27,14.2,27,15
		s-0.32,1.56-0.88,2.12C25.56,17.68,24.8,18,24,18h-0.09c-0.13,0-0.25,0.04-0.35,0.11c-0.11,0.07-0.19,0.17-0.24,0.29L22.4,18z"/>
</g>
</svg>
