<?xml version="1.0" encoding="utf-8"?>
<!-- Generator: Adobe Illustrator 24.1.3, SVG Export Plug-In . SVG Version: 6.00 Build 0)  -->
<svg version="1.1" id="レイヤー_1" xmlns="http://www.w3.org/2000/svg" xmlns:xlink="http://www.w3.org/1999/xlink" x="0px"
	 y="0px" viewBox="0 0 30 30" style="enable-background:new 0 0 30 30;" xml:space="preserve">
<style type="text/css">
	.st0{fill-rule:evenodd;clip-rule:evenodd;fill:#37352F;}
	.st1{fill:#37352F;}
	.st2{fill-rule:evenodd;clip-rule:evenodd;}
	.st3{fill:#37352F;fill-opacity:0.3;}
</style>
<g>
	<path class="st2" d="M15,6c-4.97,0-9,4.03-9,9s4.03,9,9,9s9-4.03,9-9S19.97,6,15,6z M4,15C4,8.92,8.92,4,15,4s11,4.92,11,11
		c0,6.07-4.92,11-11,11S4,21.07,4,15z"/>
	<path class="st2" d="M11.8,16.4c-0.33-0.44-0.96-0.53-1.4-0.2c-0.44,0.33-0.53,0.96-0.2,1.4L11,17c-0.8,0.6-0.8,0.6-0.8,0.6v0l0,0
		l0,0l0.01,0.01l0.02,0.03c0.02,0.02,0.04,0.05,0.07,0.09c0.06,0.07,0.14,0.16,0.25,0.28c0.21,0.22,0.52,0.51,0.92,0.8
		c0.8,0.58,2,1.19,3.53,1.19c1.53,0,2.73-0.61,3.53-1.19c0.4-0.29,0.71-0.58,0.92-0.8c0.11-0.11,0.19-0.21,0.25-0.28
		c0.03-0.03,0.05-0.06,0.07-0.09l0.02-0.03l0.01-0.01l0,0l0,0l0,0c0,0,0,0-0.8-0.6l0.8,0.6c0.33-0.44,0.24-1.07-0.2-1.4
		c-0.44-0.33-1.07-0.24-1.4,0.2l0,0.01c-0.01,0.01-0.02,0.02-0.03,0.04c-0.03,0.04-0.09,0.1-0.16,0.18
		c-0.15,0.15-0.37,0.36-0.66,0.57C16.77,17.61,15.97,18,15,18c-0.97,0-1.77-0.39-2.35-0.81c-0.29-0.21-0.51-0.42-0.66-0.57
		c-0.07-0.08-0.13-0.14-0.16-0.18C11.82,16.42,11.81,16.41,11.8,16.4L11.8,16.4z"/>
	<path class="st2" d="M11,12c0-0.55,0.45-1,1-1h0.01c0.55,0,1,0.45,1,1s-0.45,1-1,1H12C11.45,13,11,12.55,11,12z"/>
	<path class="st2" d="M17,12c0-0.55,0.45-1,1-1h0.01c0.55,0,1,0.45,1,1s-0.45,1-1,1H18C17.45,13,17,12.55,17,12z"/>
</g>
</svg>
