<?xml version="1.0" encoding="utf-8"?>
<!-- Generator: Adobe Illustrator 24.1.3, SVG Export Plug-In . SVG Version: 6.00 Build 0)  -->
<svg version="1.1" id="レイヤー_1" xmlns="http://www.w3.org/2000/svg" xmlns:xlink="http://www.w3.org/1999/xlink" x="0px"
	 y="0px" viewBox="0 0 30 30" style="enable-background:new 0 0 30 30;" xml:space="preserve">
<style type="text/css">
	.st0{fill:#37352F;}
</style>
<g>
	<path class="st0" d="M15,4C8.9,4,4,8.9,4,15s4.9,11,11,11s11-4.9,11-11S21.1,4,15,4z M15,24c-5,0-9-4-9-9c0-5,4-9,9-9s9,4,9,9
		C24,20,20,24,15,24z"/>
	<path class="st0" d="M17.8,10.9h-5.5c-0.8,0-1.4,0.6-1.4,1.4v5.5c0,0.8,0.6,1.4,1.4,1.4h5.5c0.8,0,1.4-0.6,1.4-1.4v-5.5
		C19.1,11.5,18.5,10.9,17.8,10.9z"/>
</g>
</svg>
