<?xml version="1.0" encoding="utf-8"?>
<!-- Generator: Adobe Illustrator 24.1.3, SVG Export Plug-In . SVG Version: 6.00 Build 0)  -->
<svg version="1.1" id="レイヤー_1" xmlns="http://www.w3.org/2000/svg" xmlns:xlink="http://www.w3.org/1999/xlink" x="0px"
	 y="0px" viewBox="0 0 30 30" style="enable-background:new 0 0 30 30;" xml:space="preserve">
<style type="text/css">
	.st0{fill-rule:evenodd;clip-rule:evenodd;fill:#37352F;}
	.st1{fill:#37352F;}
	.st2{fill-rule:evenodd;clip-rule:evenodd;}
	.st3{fill:#37352F;fill-opacity:0.3;}
</style>
<g>
	<path class="st0" d="M15.07,8l8.68,8.69c0.4-0.54,0.77-1.11,1.1-1.69c-0.11-0.19-0.25-0.43-0.43-0.71
		c-0.46-0.71-1.14-1.66-2.03-2.61C20.62,9.79,18.14,8.03,15.07,8z M26,15l0.89-0.45c0.15,0.29,0.14,0.63-0.01,0.92
		c-0.64,1.2-1.4,2.32-2.28,3.36c-0.18,0.21-0.44,0.34-0.72,0.36c-0.28,0.01-0.55-0.09-0.75-0.29L12.19,7.95
		c-0.26-0.26-0.35-0.63-0.25-0.98c0.1-0.35,0.38-0.62,0.73-0.7C13.44,6.09,14.22,6,15,6c0,0,0,0,0,0l0,1V6h0
		c3.9,0,6.89,2.23,8.85,4.32c0.99,1.05,1.74,2.11,2.25,2.89c0.25,0.39,0.45,0.72,0.58,0.96c0.07,0.12,0.12,0.21,0.15,0.28
		c0.02,0.03,0.03,0.06,0.04,0.08l0.01,0.02l0,0.01l0,0C26.9,14.55,26.89,14.55,26,15z M8.45,8.27C8.85,7.96,9.41,8,9.77,8.35
		l3.82,3.82c0,0,0.01,0,0.01,0.01l4.23,4.23c0,0,0,0,0.01,0.01l3.82,3.82c0.2,0.2,0.31,0.49,0.29,0.77
		c-0.02,0.29-0.16,0.55-0.39,0.73c-1.88,1.43-4.17,2.23-6.53,2.26L15,24c-3.9,0-6.9-2.23-8.86-4.32c-0.99-1.05-1.74-2.11-2.25-2.89
		c-0.25-0.39-0.45-0.72-0.58-0.96c-0.07-0.12-0.12-0.21-0.15-0.28c-0.02-0.03-0.03-0.06-0.04-0.08l-0.01-0.02l0-0.01l0,0
		c0,0,0,0,0.89-0.45l-0.89,0.45c-0.15-0.29-0.14-0.63,0.01-0.92C4.43,12.08,6.25,9.95,8.45,8.27z M5.14,15
		c0.11,0.19,0.25,0.43,0.43,0.7c0.46,0.71,1.14,1.66,2.03,2.61C9.39,20.22,11.9,22,14.99,22c1.54-0.03,3.05-0.45,4.38-1.21
		l-2.32-2.32c-0.16,0.1-0.32,0.19-0.5,0.26c-0.49,0.22-1.02,0.34-1.56,0.35c-0.54,0.01-1.07-0.09-1.57-0.29
		c-0.5-0.2-0.95-0.5-1.33-0.88c-0.38-0.38-0.68-0.83-0.88-1.33c-0.2-0.5-0.3-1.03-0.29-1.57c0.01-0.54,0.13-1.07,0.35-1.56
		c0.08-0.17,0.17-0.34,0.26-0.5L8.99,10.4C7.45,11.7,6.15,13.26,5.14,15z M13.03,14.44c-0.06,0.19-0.1,0.39-0.1,0.6
		c0,0.27,0.04,0.54,0.15,0.78c0.1,0.25,0.25,0.48,0.44,0.67s0.42,0.34,0.66,0.44c0.25,0.1,0.52,0.15,0.78,0.15
		c0.2,0,0.4-0.04,0.6-0.1L13.03,14.44z"/>
	<path class="st0" d="M3.29,3.29c0.39-0.39,1.02-0.39,1.41,0l22,22c0.39,0.39,0.39,1.02,0,1.41c-0.39,0.39-1.02,0.39-1.41,0l-22-22
		C2.9,4.32,2.9,3.68,3.29,3.29z"/>
</g>
</svg>
