<?xml version="1.0" encoding="utf-8"?>
<!-- Generator: Adobe Illustrator 24.1.3, SVG Export Plug-In . SVG Version: 6.00 Build 0)  -->
<svg version="1.1" id="レイヤー_1" xmlns="http://www.w3.org/2000/svg" xmlns:xlink="http://www.w3.org/1999/xlink" x="0px"
	 y="0px" viewBox="0 0 30 30" style="enable-background:new 0 0 30 30;" xml:space="preserve">
<style type="text/css">
	.st0{fill-rule:evenodd;clip-rule:evenodd;fill:#37352F;}
	.st1{fill:#37352F;}
	.st2{fill-rule:evenodd;clip-rule:evenodd;}
	.st3{fill:#37352F;fill-opacity:0.3;}
</style>
<g>
	<path class="st0" d="M7,14c0.55,0,1,0.45,1,1v8c0,0.26,0.1,0.52,0.29,0.71C8.48,23.89,8.73,24,9,24h12c0.27,0,0.52-0.11,0.71-0.29
		C21.9,23.52,22,23.26,22,23v-8c0-0.55,0.45-1,1-1s1,0.45,1,1v8c0,0.8-0.32,1.56-0.88,2.12C22.56,25.68,21.8,26,21,26H9
		c-0.8,0-1.56-0.32-2.12-0.88C6.32,24.56,6,23.8,6,23v-8C6,14.45,6.45,14,7,14z"/>
	<path class="st0" d="M14.29,4.29c0.39-0.39,1.02-0.39,1.41,0l4,4c0.39,0.39,0.39,1.02,0,1.41c-0.39,0.39-1.02,0.39-1.41,0L15,6.41
		l-3.29,3.29c-0.39,0.39-1.02,0.39-1.41,0c-0.39-0.39-0.39-1.02,0-1.41L14.29,4.29z"/>
	<path class="st0" d="M15,4c0.55,0,1,0.45,1,1v13c0,0.55-0.45,1-1,1s-1-0.45-1-1V5C14,4.45,14.45,4,15,4z"/>
</g>
</svg>
