<?xml version="1.0" encoding="utf-8"?>
<!-- Generator: Adobe Illustrator 24.1.3, SVG Export Plug-In . SVG Version: 6.00 Build 0)  -->
<svg version="1.1" id="レイヤー_1" xmlns="http://www.w3.org/2000/svg" xmlns:xlink="http://www.w3.org/1999/xlink" x="0px"
	 y="0px" viewBox="0 0 30 30" style="enable-background:new 0 0 30 30;" xml:space="preserve">
<style type="text/css">
	.st0{fill-rule:evenodd;clip-rule:evenodd;fill:#37352F;}
	.st1{fill:#37352F;}
	.st2{fill-rule:evenodd;clip-rule:evenodd;}
	.st3{fill:#37352F;fill-opacity:0.3;}
</style>
<g>
	<path class="st0" d="M7.46,18.46C8.4,17.53,9.67,17,11,17h8c1.33,0,2.6,0.53,3.54,1.46C23.47,19.4,24,20.67,24,22v2
		c0,0.55-0.45,1-1,1s-1-0.45-1-1v-2c0-0.8-0.32-1.56-0.88-2.12C20.56,19.32,19.8,19,19,19h-8c-0.8,0-1.56,0.32-2.12,0.88
		C8.32,20.44,8,21.2,8,22v2c0,0.55-0.45,1-1,1s-1-0.45-1-1v-2C6,20.67,6.53,19.4,7.46,18.46z"/>
	<path class="st0" d="M15,7c-1.66,0-3,1.34-3,3s1.34,3,3,3s3-1.34,3-3S16.66,7,15,7z M10,10c0-2.76,2.24-5,5-5c2.76,0,5,2.24,5,5
		c0,2.76-2.24,5-5,5C12.24,15,10,12.76,10,10z"/>
</g>
</svg>
