<?xml version="1.0" encoding="utf-8"?>
<!-- Generator: Adobe Illustrator 24.1.3, SVG Export Plug-In . SVG Version: 6.00 Build 0)  -->
<svg version="1.1" id="レイヤー_1" xmlns="http://www.w3.org/2000/svg" xmlns:xlink="http://www.w3.org/1999/xlink" x="0px"
	 y="0px" viewBox="0 0 30 30" style="enable-background:new 0 0 30 30;" xml:space="preserve">
<style type="text/css">
	.st0{fill-rule:evenodd;clip-rule:evenodd;fill:#37352F;}
	.st1{fill:#37352F;}
	.st2{fill-rule:evenodd;clip-rule:evenodd;}
	.st3{fill:#37352F;fill-opacity:0.3;}
</style>
<g>
	<path class="st0" d="M26.46,9.11C26.79,9.28,27,9.63,27,10v10c0,0.37-0.21,0.72-0.54,0.89c-0.33,0.17-0.73,0.14-1.04-0.08l-7-5
		C18.16,15.63,18,15.32,18,15c0-0.32,0.16-0.63,0.42-0.81l7-5C25.72,8.97,26.12,8.94,26.46,9.11z M20.72,15L25,18.06v-6.11L20.72,15
		z"/>
	<path class="st0" d="M6,9c-0.55,0-1,0.45-1,1v10c0,0.55,0.45,1,1,1h11c0.55,0,1-0.45,1-1V10c0-0.55-0.45-1-1-1H6z M3,10
		c0-1.66,1.34-3,3-3h11c1.66,0,3,1.34,3,3v10c0,1.66-1.34,3-3,3H6c-1.66,0-3-1.34-3-3V10z"/>
</g>
</svg>
