<?xml version="1.0" encoding="utf-8"?>
<!-- Generator: Adobe Illustrator 24.1.3, SVG Export Plug-In . SVG Version: 6.00 Build 0)  -->
<svg version="1.1" id="レイヤー_1" xmlns="http://www.w3.org/2000/svg" xmlns:xlink="http://www.w3.org/1999/xlink" x="0px"
	 y="0px" viewBox="0 0 30 30" style="enable-background:new 0 0 30 30;" xml:space="preserve">
<style type="text/css">
	.st0{fill-rule:evenodd;clip-rule:evenodd;fill:#37352F;}
	.st1{fill:#37352F;}
</style>
<g>
	<path class="st0" d="M10.4,6.9c0.4-0.2,0.8,0,1,0.3c0.3,0.7,1,2.1,1.5,3.3c0.5,1,0.9,1.9,1,2.1l0,0c0.2,0.4,0.4,1,0.1,1.5
		c-0.3,0.7-0.9,0.9-1.6,0.9h-0.8v1.6c0,0.4-0.3,0.7-0.7,0.7H9c0,0.6,0.1,1,0.3,1.2c0.2,0.3,0.6,0.6,1.3,0.9c0.3,0.1,0.5,0.5,0.4,0.9
		c-0.2,0.8-0.7,1.5-1.3,1.9c-0.6,0.5-1.4,0.8-2.2,0.7H5.7c-0.4,0-0.7-0.3-0.7-0.7c0-0.4,0.3-0.7,0.7-0.7h1.8c0.5,0,0.9-0.2,1.3-0.4
		c0.2-0.2,0.4-0.4,0.5-0.6C8.8,20.4,8.4,20,8,19.4c-0.4-0.7-0.5-1.6-0.5-2.7c0-0.4,0.3-0.7,0.7-0.7h2v-1.6c0-0.4,0.3-0.7,0.7-0.7
		h1.5c0.1,0,0.1,0,0.2,0c0-0.1,0-0.2-0.1-0.3c-0.1-0.2-0.6-1.2-1-2.2c-0.6-1.2-1.2-2.5-1.5-3.2C9.9,7.5,10.1,7.1,10.4,6.9z"/>
	<path class="st1" d="M8.4,12.1c0.5,0,1-0.4,1-1c0-0.5-0.4-1-1-1c-0.5,0-1,0.4-1,1C7.5,11.7,7.9,12.1,8.4,12.1z"/>
	<path class="st0" d="M16.7,13.3c0.3-0.3,0.8-0.3,1,0c0.4,0.4,0.7,0.8,0.9,1.3c0.2,0.5,0.3,1,0.3,1.5c0,0.5-0.1,1-0.3,1.5
		c-0.2,0.5-0.5,0.9-0.9,1.3c-0.3,0.3-0.8,0.3-1,0c-0.3-0.3-0.3-0.8,0-1c0.2-0.2,0.4-0.5,0.5-0.8c0.1-0.3,0.2-0.6,0.2-0.9v0
		c0-0.3-0.1-0.6-0.2-0.9c-0.1-0.3-0.3-0.5-0.5-0.8C16.4,14.1,16.4,13.6,16.7,13.3z"/>
	<path class="st0" d="M18.9,11.2c0.3-0.3,0.8-0.3,1,0c0.6,0.6,1.2,1.4,1.5,2.2c0.3,0.8,0.5,1.7,0.5,2.6c0,0.9-0.2,1.8-0.5,2.6
		c-0.3,0.8-0.9,1.6-1.5,2.2c-0.3,0.3-0.8,0.3-1,0c-0.3-0.3-0.3-0.8,0-1c0.5-0.5,0.9-1.1,1.2-1.7c0.3-0.6,0.4-1.3,0.4-2c0,0,0,0,0,0
		c0-0.7-0.1-1.4-0.4-2.1c-0.3-0.6-0.7-1.2-1.2-1.7C18.7,11.9,18.6,11.4,18.9,11.2z"/>
	<path class="st0" d="M21,9c0.3-0.3,0.8-0.3,1,0c0.9,0.9,1.7,2,2.1,3.2c0.5,1.2,0.8,2.5,0.8,3.8c0,1.3-0.3,2.6-0.8,3.8
		C23.7,21,23,22,22.1,23c-0.3,0.3-0.8,0.3-1,0c-0.3-0.3-0.3-0.8,0-1c0.8-0.8,1.4-1.7,1.8-2.7c0.4-1,0.6-2.1,0.6-3.2
		c0-1.1-0.2-2.2-0.6-3.2c-0.4-1-1-1.9-1.8-2.7C20.8,9.8,20.8,9.3,21,9z"/>
</g>
</svg>
