<?xml version="1.0" encoding="utf-8"?>
<!-- Generator: Adobe Illustrator 24.1.3, SVG Export Plug-In . SVG Version: 6.00 Build 0)  -->
<svg version="1.1" id="レイヤー_1" xmlns="http://www.w3.org/2000/svg" xmlns:xlink="http://www.w3.org/1999/xlink" x="0px"
	 y="0px" viewBox="0 0 30 30" style="enable-background:new 0 0 30 30;" xml:space="preserve">
<style type="text/css">
	.st0{fill:#37352F;}
</style>
<g>
	<path class="st0" d="M14.4,7.1c-0.3-0.2-0.8-0.1-1,0.1L8.7,11H5c-0.5,0-1,0.5-1,1v6c0,0.5,0.5,1,1,1h3.7l4.7,3.8
		c0.3,0.2,0.7,0.3,1.1,0.1c0.4-0.2,0.6-0.5,0.6-0.9V8C15,7.6,14.8,7.3,14.4,7.1z M13,19.9l-3.4-2.7C9.5,17.1,9.2,17,9,17H6v-4h3
		c0.2,0,0.5-0.1,0.6-0.2l3.4-2.7V19.9z"/>
	<path class="st0" d="M17.8,10.8c-0.4,0.4-0.4,1,0,1.4c0.8,0.8,1.2,1.8,1.2,2.8s-0.4,2.1-1.2,2.8c-0.4,0.4-0.4,1,0,1.4
		c0.4,0.4,1,0.4,1.4,0c1.1-1.1,1.8-2.6,1.8-4.2c0-1.6-0.6-3.1-1.8-4.2C18.8,10.4,18.2,10.4,17.8,10.8z"/>
	<path class="st0" d="M22.8,7.2c-0.4-0.4-1-0.4-1.4,0c-0.4,0.4-0.4,1,0,1.4c1.7,1.7,2.6,4,2.6,6.4s-1,4.7-2.6,6.4
		c-0.4,0.4-0.4,1,0,1.4c0.4,0.4,1,0.4,1.4,0c2.1-2.1,3.2-4.9,3.2-7.8S24.8,9.3,22.8,7.2z"/>
</g>
</svg>
