<?xml version="1.0" encoding="utf-8"?>
<!-- Generator: Adobe Illustrator 24.1.3, SVG Export Plug-In . SVG Version: 6.00 Build 0)  -->
<svg version="1.1" id="レイヤー_1" xmlns="http://www.w3.org/2000/svg" xmlns:xlink="http://www.w3.org/1999/xlink" x="0px"
	 y="0px" viewBox="0 0 30 30" style="enable-background:new 0 0 30 30;" xml:space="preserve">
<style type="text/css">
	.st0{fill-rule:evenodd;clip-rule:evenodd;fill:#37352F;}
</style>
<g>
	<path class="st0" d="M13,7c0.4,0.2,0.6,0.5,0.6,0.9v14c0,0.4-0.2,0.8-0.6,0.9c-0.4,0.2-0.8,0.1-1.1-0.1L7.2,19H3.6
		c-0.6,0-1-0.5-1-1v-6c0-0.6,0.5-1,1-1h3.6L12,7.2C12.3,6.9,12.7,6.9,13,7z M11.6,10.1l-3.3,2.7C8,12.9,7.8,13,7.6,13h-3v4h3
		c0.2,0,0.5,0.1,0.6,0.2l3.3,2.7V10.1z"/>
	<path class="st0" d="M15.9,11.2c0.4-0.4,1-0.4,1.5,0c0.5,0.5,0.9,1.1,1.2,1.7c0.3,0.6,0.4,1.3,0.4,2c0,0.7-0.1,1.4-0.4,2
		c-0.3,0.6-0.7,1.2-1.2,1.7c-0.4,0.4-1.1,0.4-1.5,0c-0.4-0.4-0.4-1.1,0-1.5c0.3-0.3,0.6-0.7,0.7-1.1c0.2-0.4,0.3-0.8,0.3-1.2
		c0-0.4-0.1-0.9-0.3-1.2c-0.2-0.4-0.4-0.8-0.7-1.1C15.5,12.3,15.5,11.6,15.9,11.2z"/>
	<path class="st0" d="M18.9,8.2c0.4-0.4,1-0.4,1.5,0c0.9,0.9,1.6,1.9,2.1,3.1s0.7,2.4,0.7,3.7c0,1.3-0.2,2.5-0.7,3.7
		c-0.5,1.2-1.2,2.2-2.1,3.1c-0.4,0.4-1.1,0.4-1.5,0c-0.4-0.4-0.4-1.1,0-1.5c0.7-0.7,1.3-1.5,1.6-2.4c0.4-0.9,0.6-1.9,0.6-2.9
		s-0.2-2-0.6-2.9c-0.4-0.9-0.9-1.7-1.6-2.4C18.5,9.3,18.5,8.6,18.9,8.2z"/>
</g>
</svg>
