<?xml version="1.0" encoding="utf-8"?>
<!-- Generator: Adobe Illustrator 24.1.3, SVG Export Plug-In . SVG Version: 6.00 Build 0)  -->
<svg version="1.1" id="レイヤー_1" xmlns="http://www.w3.org/2000/svg" xmlns:xlink="http://www.w3.org/1999/xlink" x="0px"
	 y="0px" viewBox="0 0 30 30" style="enable-background:new 0 0 30 30;" xml:space="preserve">
<style type="text/css">
	.st0{fill-rule:evenodd;clip-rule:evenodd;fill:#37352F;}
	.st1{fill:#37352F;}
	.st2{fill-rule:evenodd;clip-rule:evenodd;}
	.st3{fill:#37352F;fill-opacity:0.3;}
</style>
<g>
	<path class="st0" d="M19.93,7.1C20.28,7.27,20.5,7.62,20.5,8v14c0,0.38-0.22,0.73-0.57,0.9c-0.35,0.17-0.76,0.12-1.06-0.12
		L14.15,19H10.5c-0.55,0-1-0.45-1-1v-6c0-0.55,0.45-1,1-1h3.65l4.73-3.78C19.17,6.98,19.59,6.93,19.93,7.1z M18.5,10.08l-3.38,2.7
		C14.95,12.92,14.73,13,14.5,13h-3v4h3c0.23,0,0.45,0.08,0.62,0.22l3.38,2.7V10.08z"/>
</g>
</svg>
