<?xml version="1.0" encoding="utf-8"?>
<!-- Generator: Adobe Illustrator 24.1.3, SVG Export Plug-In . SVG Version: 6.00 Build 0)  -->
<svg version="1.1" id="レイヤー_1" xmlns="http://www.w3.org/2000/svg" xmlns:xlink="http://www.w3.org/1999/xlink" x="0px"
	 y="0px" viewBox="0 0 30 30" style="enable-background:new 0 0 30 30;" xml:space="preserve">
<style type="text/css">
	.st0{fill-rule:evenodd;clip-rule:evenodd;fill:#37352F;}
	.st1{fill:#37352F;}
	.st2{fill-rule:evenodd;clip-rule:evenodd;}
	.st3{fill:#37352F;fill-opacity:0.3;}
</style>
<g>
	<path class="st1" d="M23.5,22.22c0,0.7-0.57,1.27-1.28,1.27c-0.7,0-1.27-0.57-1.27-1.27V7.77c0-0.7,0.57-1.28,1.27-1.28
		c0.7,0,1.28,0.57,1.28,1.28V22.22z"/>
	<path class="st1" d="M18.68,22.22c0,0.7-0.57,1.27-1.28,1.27s-1.28-0.57-1.28-1.27v-10.2c0-0.7,0.57-1.27,1.28-1.27
		s1.28,0.57,1.28,1.27V22.22z"/>
	<path class="st1" d="M13.87,22.23c0,0.7-0.57,1.27-1.28,1.27c-0.7,0-1.28-0.57-1.28-1.27v-6.66c0-0.7,0.57-1.27,1.28-1.27
		c0.7,0,1.28,0.57,1.28,1.27V22.23z"/>
	<path class="st1" d="M9.05,22.22c0,0.7-0.57,1.28-1.27,1.28c-0.7,0-1.28-0.57-1.28-1.28v-3.12c0-0.7,0.57-1.27,1.28-1.27
		c0.7,0,1.27,0.57,1.27,1.27V22.22z"/>
</g>
</svg>
