<svg width="178" height="40" viewBox="0 0 178 40" fill="none" xmlns="http://www.w3.org/2000/svg">
<path d="M69.2888 23.6181C69.2178 23.5456 69.1662 23.4564 69.1387 23.3588C69.1113 23.2611 69.1088 23.1581 69.1317 23.0592C69.1545 22.9603 69.2019 22.8688 69.2695 22.7931C69.337 22.7174 69.4225 22.6599 69.5181 22.6259C71.2537 22.1475 72.7957 21.1374 73.9278 19.7376C75.1037 18.2089 75.6917 16.2143 75.6917 13.7537C75.7015 12.4385 75.4776 11.1321 75.0302 9.89525C74.5919 8.67263 73.8909 7.56091 72.9767 6.63832C72.0625 5.71572 70.9572 5.00466 69.7386 4.55516C68.2312 3.99663 66.6319 3.72735 65.0247 3.76142H52.5366C52.462 3.75775 52.3875 3.76951 52.3177 3.79596C52.2479 3.82241 52.1843 3.86299 52.1309 3.91514C52.0775 3.96729 52.0355 4.02991 52.0074 4.09906C51.9793 4.16821 51.9658 4.24242 51.9677 4.31703V35.3037C51.9776 35.5133 52.0662 35.7114 52.2158 35.8586C52.3654 36.0057 52.5649 36.091 52.7747 36.0974H59.8081C59.8823 36.1005 59.9563 36.0883 60.0256 36.0615C60.0948 36.0348 60.1579 35.9941 60.2108 35.942C60.2637 35.8899 60.3054 35.8276 60.3332 35.7587C60.361 35.6899 60.3744 35.616 60.3725 35.5418V25.7612C60.3725 25.113 61.2544 24.9983 61.6205 25.5936L68.1423 35.7182C68.2158 35.8339 68.3166 35.9297 68.4358 35.9974C68.5549 36.065 68.6889 36.1024 68.8258 36.1063H77.676C78.2008 36.1063 78.4212 35.5374 78.0773 35.0876L69.2888 23.6181ZM65.7611 17.1844C64.8792 17.8723 63.6004 18.2119 61.9424 18.2119H61.1618C60.9528 18.2055 60.7539 18.1208 60.6044 17.9746C60.4549 17.8284 60.3658 17.6313 60.3549 17.4225V10.8081C60.3536 10.7334 60.3676 10.6593 60.3958 10.5902C60.4241 10.5211 60.4661 10.4585 60.5193 10.4062C60.5725 10.3538 60.6358 10.3128 60.7053 10.2856C60.7748 10.2584 60.8491 10.2456 60.9237 10.248H61.9424C63.6004 10.248 64.8733 10.592 65.7611 11.2799C66.2021 11.6314 66.5523 12.0836 66.7825 12.5984C67.0127 13.1132 67.1161 13.6757 67.084 14.2388C67.1181 14.8003 67.0175 15.3619 66.7904 15.8766C66.5634 16.3913 66.2165 16.8443 65.7788 17.1976L65.7611 17.1844Z" fill="#00A0E9"/>
<path d="M108.037 3.76146H101.043C100.968 3.75779 100.894 3.76955 100.824 3.796C100.754 3.82245 100.691 3.86303 100.637 3.91518C100.584 3.96733 100.542 4.02995 100.514 4.0991C100.486 4.16825 100.472 4.24246 100.474 4.31707V21.3428C100.474 22.2864 100.439 23.2521 100.368 24.2399C100.309 25.1663 100.083 26.0745 99.7023 26.921C99.334 27.7181 98.7468 28.3941 98.0089 28.87C97.2505 29.3727 96.1701 29.6197 94.7723 29.6197C93.3744 29.6197 92.2808 29.3727 91.5091 28.87C90.7646 28.4018 90.1754 27.7236 89.8158 26.921C89.4479 26.0758 89.2301 25.1731 89.172 24.2531C89.1073 23.2566 89.075 22.2864 89.075 21.3428V4.5552C89.0651 4.34561 88.9765 4.14746 88.8269 4.00032C88.6773 3.85318 88.4777 3.76789 88.268 3.76146H81.2126C81.1384 3.75842 81.0643 3.77064 80.9951 3.79737C80.9258 3.8241 80.8628 3.86477 80.8098 3.91686C80.7569 3.96894 80.7153 4.03134 80.6875 4.10018C80.6596 4.16903 80.6462 4.24285 80.6481 4.31707V22.4893C80.6481 27.5192 81.8064 31.1939 84.1229 33.5134C86.4395 35.8329 89.9848 36.9897 94.759 36.9838C99.5391 36.9926 103.083 35.8358 105.391 33.5134C107.698 31.191 108.849 27.5163 108.843 22.4893V4.5552C108.834 4.34561 108.745 4.14746 108.595 4.00032C108.446 3.85318 108.246 3.76789 108.037 3.76146Z" fill="#00A0E9"/>
<path d="M131.218 23.6181C131.147 23.546 131.095 23.4571 131.068 23.3596C131.04 23.2622 131.037 23.1593 131.059 23.0605C131.082 22.9617 131.129 22.8701 131.196 22.7942C131.263 22.7182 131.348 22.6604 131.443 22.6259C133.188 22.1539 134.739 21.143 135.875 19.7376C137.051 18.2089 137.639 16.2143 137.639 13.7537C137.649 12.4381 137.423 11.1314 136.973 9.89526C136.543 8.71172 135.872 7.6305 135.002 6.72031C134.065 5.76443 132.93 5.0254 131.677 4.55517C130.18 4.00201 128.594 3.73283 126.998 3.76143H114.466C114.391 3.75777 114.317 3.76953 114.247 3.79598C114.177 3.82243 114.114 3.863 114.06 3.91515C114.007 3.96731 113.965 4.02992 113.937 4.09907C113.909 4.16823 113.895 4.24243 113.897 4.31705V35.3037C113.907 35.5133 113.996 35.7114 114.145 35.8586C114.295 36.0057 114.494 36.091 114.704 36.0974H121.738C121.812 36.1005 121.886 36.0883 121.955 36.0615C122.024 36.0348 122.087 35.9941 122.14 35.9421C122.193 35.89 122.235 35.8276 122.263 35.7587C122.29 35.6899 122.304 35.6161 122.302 35.5418V25.7612C122.302 25.113 123.184 24.9983 123.55 25.5936L130.085 35.7182C130.158 35.8335 130.258 35.9292 130.376 35.9969C130.495 36.0645 130.628 36.1021 130.764 36.1063H139.619C140.139 36.1063 140.364 35.5374 140.02 35.0876L131.218 23.6181ZM127.691 17.1844C126.809 17.8723 125.53 18.2119 123.872 18.2119H123.091C122.882 18.2055 122.683 18.1208 122.534 17.9746C122.384 17.8284 122.295 17.6314 122.284 17.4225V10.8081C122.282 10.7333 122.296 10.6589 122.324 10.5895C122.352 10.5201 122.394 10.4572 122.447 10.4047C122.501 10.3522 122.564 10.3112 122.634 10.2843C122.704 10.2573 122.778 10.245 122.853 10.248H123.911C125.569 10.248 126.842 10.592 127.73 11.2799C128.171 11.6314 128.521 12.0836 128.752 12.5984C128.982 13.1132 129.085 13.6757 129.053 14.2388C129.083 14.8037 128.976 15.3674 128.742 15.8823C128.508 16.3973 128.153 16.8484 127.708 17.1977L127.691 17.1844Z" fill="#00A0E9"/>
<path d="M176.201 35.0832L164.564 4.50666C164.504 4.35276 164.4 4.21981 164.265 4.12422C164.13 4.02863 163.971 3.97456 163.806 3.96868H155.696C155.583 3.96528 155.471 3.9969 155.377 4.05924C155.282 4.12158 155.209 4.2116 155.167 4.31704L143.534 34.8892C143.504 35.0071 143.5 35.1306 143.524 35.2501C143.548 35.3696 143.599 35.4821 143.673 35.579C143.747 35.6759 143.842 35.7547 143.951 35.8094C144.06 35.864 144.18 35.8932 144.302 35.8946H151.586C151.703 35.8993 151.819 35.8662 151.916 35.8003C152.013 35.7344 152.086 35.6392 152.124 35.5286L153.778 30.7088C153.816 30.599 153.888 30.5045 153.985 30.4393C154.081 30.3741 154.196 30.3418 154.312 30.3472H165.186C165.355 30.3538 165.518 30.4111 165.654 30.5118C165.79 30.6125 165.893 30.7518 165.949 30.9117L167.466 35.3213C167.522 35.4815 167.625 35.621 167.762 35.7217C167.899 35.8224 168.063 35.8795 168.233 35.8858H175.681C175.776 35.8872 175.871 35.8644 175.955 35.8194C176.039 35.7744 176.111 35.7087 176.163 35.6285C176.215 35.5483 176.246 35.4561 176.252 35.3608C176.259 35.2654 176.241 35.1699 176.201 35.0832ZM162.752 24.037H157.222C157.101 24.035 156.983 24.0059 156.875 23.9521C156.767 23.8982 156.673 23.8208 156.599 23.7256C156.525 23.6304 156.473 23.5199 156.447 23.4021C156.422 23.2843 156.423 23.1622 156.45 23.0449L159.215 15.1604C159.414 14.5915 160.291 14.7194 160.512 15.3588L163.276 23.2433C163.315 23.3299 163.331 23.4249 163.323 23.5194C163.315 23.6139 163.284 23.7049 163.232 23.7839C163.179 23.863 163.108 23.9277 163.024 23.9719C162.94 24.0162 162.846 24.0385 162.752 24.037Z" fill="#00A0E9"/>
<path d="M2.14755 14.0095C2.20865 14.187 2.3041 14.3507 2.42847 14.4913C2.55283 14.6319 2.70367 14.7466 2.87238 14.8289C3.04108 14.9112 3.22434 14.9595 3.4117 14.971C3.59906 14.9825 3.78684 14.9569 3.96433 14.8958C4.14182 14.8347 4.30554 14.7393 4.44614 14.6149C4.58674 14.4906 4.70147 14.3397 4.78377 14.171C4.86608 14.0023 4.91435 13.8191 4.92582 13.6317C4.9373 13.4443 4.91177 13.2565 4.85067 13.0791C3.69975 9.74536 3.88937 7.08193 5.38424 5.58264C7.02905 3.91138 10.2084 3.69972 14.111 5.00057C14.7239 5.20341 15.3148 5.41948 15.8748 5.64879C16.8317 4.9697 17.8018 4.32589 18.7764 3.77909C17.5434 3.21226 16.2803 2.71322 14.9929 2.28422C10.0408 0.630595 5.78993 1.09361 3.35139 3.56302C1.04955 5.88691 0.621813 9.59543 2.14755 14.0095Z" fill="#00A0E9"/>
<path d="M24.4957 2.28421C23.3075 2.68869 22.1493 3.17643 21.0297 3.74381C20.6593 3.92901 20.2845 4.12304 19.9141 4.33029C18.9439 4.86386 17.9782 5.46357 17.0169 6.09415C16.6862 6.32346 16.3555 6.55717 16.0247 6.7997C13.6727 8.5289 11.5023 10.4924 9.54696 12.6601C9.292 12.9408 9.15899 13.3113 9.17719 13.69C9.19538 14.0688 9.36329 14.4248 9.64397 14.6798C9.92465 14.9347 10.2951 15.0677 10.6739 15.0495C11.0526 15.0313 11.4086 14.8634 11.6636 14.5827C13.8331 12.1852 16.2834 10.0577 18.9616 8.24607C19.2879 8.02999 19.6186 7.8051 19.9449 7.61549L20.0199 7.65958C20.3286 7.84038 20.6328 8.02999 20.9283 8.22402C23.4856 9.92041 25.7645 12.003 27.6839 14.3975C27.9274 14.6815 28.2725 14.8587 28.6452 14.891C29.0179 14.9233 29.3884 14.8081 29.6771 14.5703C29.9658 14.3324 30.1497 13.9907 30.1893 13.6187C30.2288 13.2467 30.1209 12.8741 29.8887 12.5808C28.1169 10.3829 26.0753 8.41688 23.8122 6.72915C23.4859 6.49102 23.1596 6.26172 22.8288 6.04124C23.1993 5.86485 23.5741 5.70169 23.9445 5.54736C24.434 5.34451 24.919 5.15931 25.3997 5.00056C29.2978 3.69971 32.4772 3.90696 34.1264 5.57381C35.6168 7.08192 35.8065 9.74535 34.6555 13.0702C34.5322 13.4287 34.5562 13.8215 34.7224 14.1622C34.8887 14.5029 35.1834 14.7636 35.5419 14.887C35.9003 15.0104 36.2931 14.9863 36.6338 14.8201C36.9746 14.6539 37.2353 14.3591 37.3587 14.0007C38.8844 9.59101 38.4567 5.87808 36.1548 3.55419C33.7163 1.0936 29.4654 0.630588 24.4957 2.28421Z" fill="#00A0E9"/>
<path d="M32.8475 22.9302C33.5156 22.9302 34.1686 22.7321 34.7241 22.361C35.2796 21.9898 35.7125 21.4623 35.9682 20.845C36.2239 20.2278 36.2907 19.5487 36.1604 18.8934C36.0301 18.2382 35.7084 17.6363 35.236 17.164C34.7636 16.6916 34.1617 16.3699 33.5065 16.2395C32.8513 16.1092 32.1721 16.1761 31.5549 16.4317C30.9377 16.6874 30.4101 17.1203 30.039 17.6758C29.6678 18.2313 29.4697 18.8844 29.4697 19.5524C29.4691 19.9962 29.5561 20.4357 29.7257 20.8457C29.8952 21.2558 30.144 21.6284 30.4578 21.9422C30.7715 22.256 31.1441 22.5047 31.5542 22.6743C31.9643 22.8438 32.4038 22.9308 32.8475 22.9302Z" fill="#00A0E9"/>
<path d="M3.5542 19.4422C3.5542 20.1104 3.75242 20.7637 4.12377 21.3192C4.49512 21.8748 5.02292 22.3077 5.64039 22.5633C6.25786 22.8188 6.93725 22.8854 7.5926 22.7547C8.24795 22.6241 8.8498 22.3019 9.32202 21.8291C9.79424 21.3562 10.1156 20.754 10.2454 20.0984C10.3753 19.4429 10.3077 18.7636 10.0514 18.1465C9.79507 17.5294 9.36145 17.0021 8.80539 16.6315C8.24934 16.2609 7.59584 16.0635 6.92759 16.0644C6.48422 16.0644 6.0452 16.1518 5.63563 16.3216C5.22606 16.4914 4.85399 16.7403 4.54068 17.054C4.22738 17.3677 3.97899 17.7401 3.80972 18.1499C3.64045 18.5597 3.55362 18.9988 3.5542 19.4422Z" fill="#00A0E9"/>
<path d="M35.5153 24.1738C35.3369 24.2325 35.1718 24.3261 35.0296 24.4489C34.8875 24.5718 34.771 24.7215 34.687 24.8896C34.603 25.0576 34.553 25.2407 34.5401 25.4281C34.5271 25.6155 34.5513 25.8037 34.6113 25.9817C35.8769 29.7828 35.6123 32.9137 33.8749 34.5673C32.2257 36.1372 29.2756 36.2562 25.7788 34.898C25.0247 34.607 24.3015 34.2983 23.574 33.9676C22.692 34.6202 21.7616 35.2244 20.8047 35.7888C22.0787 36.4468 23.3874 37.0357 24.7249 37.5527C26.4575 38.2579 28.3049 38.639 30.1752 38.6771C32.4462 38.6771 34.3997 37.9892 35.8284 36.6222C38.3992 34.1749 38.9151 29.9592 37.3056 25.0645C37.1831 24.7113 36.927 24.4202 36.5923 24.2537C36.2576 24.0872 35.8709 24.0585 35.5153 24.1738Z" fill="#00A0E9"/>
<path d="M23.4681 32.7637C25.8755 30.9145 28.0518 28.7826 29.9503 26.4138C30.0868 26.2716 30.1924 26.1026 30.2604 25.9176C30.3284 25.7326 30.3574 25.5355 30.3455 25.3387C30.3337 25.1419 30.2812 24.9497 30.1914 24.7742C30.1017 24.5987 29.9766 24.4436 29.824 24.3188C29.6714 24.194 29.4946 24.1021 29.3048 24.0489C29.115 23.9957 28.9162 23.9824 28.721 24.0098C28.5257 24.0372 28.3383 24.1046 28.1704 24.208C28.0025 24.3113 27.8578 24.4483 27.7455 24.6103C25.7216 27.1407 23.3456 29.3682 20.69 31.2248C20.4078 31.4232 20.1212 31.6128 19.8345 31.798L18.8424 31.2204L18.4499 30.9866C15.9484 29.1705 13.7028 27.0257 11.7737 24.6103C11.6613 24.4483 11.5166 24.3113 11.3488 24.208C11.1809 24.1046 10.9934 24.0372 10.7982 24.0098C10.603 23.9824 10.4042 23.9957 10.2144 24.0489C10.0245 24.1021 9.84777 24.194 9.69518 24.3188C9.54259 24.4436 9.41748 24.5987 9.32772 24.7742C9.23797 24.9497 9.18551 25.1419 9.17364 25.3387C9.16178 25.5355 9.19077 25.7326 9.25878 25.9176C9.3268 26.1026 9.43237 26.2716 9.56886 26.4138C11.4673 28.7826 13.6437 30.9145 16.0511 32.7637C16.3597 32.9989 16.6728 33.2282 16.9903 33.4516C16.642 33.628 16.2892 33.8 15.9276 33.9676C15.222 34.2998 14.4871 34.6099 13.7228 34.898C10.2303 36.2562 7.28025 36.1592 5.63104 34.5673C3.89804 32.9137 3.62905 29.7828 4.89463 25.9817C4.98089 25.7993 5.02755 25.6007 5.03153 25.399C5.0355 25.1972 4.9967 24.9969 4.91768 24.8113C4.83866 24.6256 4.72122 24.4588 4.57308 24.3218C4.42494 24.1849 4.24946 24.0808 4.05821 24.0165C3.86695 23.9522 3.66425 23.9292 3.46344 23.9489C3.26264 23.9687 3.06829 24.0307 2.89319 24.1309C2.71809 24.2312 2.56621 24.3674 2.44754 24.5306C2.32888 24.6938 2.24613 24.8802 2.20473 25.0777C0.551113 29.9857 1.08909 34.1881 3.65992 36.6354C5.09306 38.0024 7.04213 38.6903 9.3131 38.6903C11.1834 38.6522 13.0308 38.2711 14.7634 37.5659C16.1009 37.0489 17.4096 36.46 18.6836 35.802C19.0452 35.6168 19.4024 35.4228 19.7552 35.2243C20.7121 34.6775 21.6381 34.0955 22.5288 33.4605C22.8463 33.2312 23.1594 32.9989 23.4681 32.7637Z" fill="#00A0E9"/>
</svg>
